{"glyphs":{"0":{"ha":477,"x_min":31,"x_max":445,"o":"m 383 937 q 427 778 412 869 q 444 592 442 686 q 430 408 445 498 q 387 250 415 317 q 311 145 359 182 q 203 119 263 108 q 107 176 146 129 q 53 292 69 223 q 34 446 37 361 q 41 617 31 530 q 70 785 52 705 q 112 929 87 865 q 160 1028 136 993 q 186 1050 168 1039 q 221 1067 205 1061 l 236 1074 q 256 1075 249 1074 q 271 1070 262 1075 q 283 1061 279 1065 q 294 1050 287 1057 q 308 1038 302 1043 q 383 937 356 1002 m 338 648 q 333 687 337 652 q 326 739 329 722 q 317 792 323 757 q 304 850 311 828 q 288 897 298 872 q 266 937 279 922 q 239 958 254 952 q 186 818 212 909 q 148 626 161 728 q 135 431 135 524 q 161 278 135 338 q 236 220 186 218 q 266 245 249 220 q 298 311 282 269 q 326 407 314 352 q 342 523 338 461 q 338 648 345 584 z "},"1":{"ha":211,"x_min":39,"x_max":170,"o":"m 145 1023 l 170 175 q 150 137 169 150 q 108 128 131 123 q 74 156 85 133 q 57 378 67 170 q 43 774 46 586 q 50 1023 39 962 q 69 1048 55 1040 q 97 1057 83 1057 q 126 1048 112 1057 q 145 1023 140 1040 z "},"2":{"ha":533,"x_min":9,"x_max":524,"o":"m 380 566 q 291 407 337 482 q 221 296 245 332 q 197 254 198 260 q 330 245 230 248 q 446 248 429 243 q 503 232 479 261 q 516 176 524 205 q 454 140 506 140 q 382 141 431 141 q 321 141 341 141 q 264 143 300 142 q 209 147 228 144 q 163 155 190 150 q 123 168 136 160 q 96 186 109 176 q 77 213 82 197 q 75 248 73 229 q 114 321 77 264 q 198 453 151 378 q 289 611 245 528 q 356 784 334 695 q 361 937 378 872 q 275 994 337 1026 q 176 886 226 968 q 125 749 127 804 q 125 735 125 741 q 102 683 131 699 q 48 688 75 669 q 20 783 9 714 q 85 933 31 848 q 269 1097 171 1069 q 406 1065 349 1121 q 469 882 468 1004 q 380 566 469 737 z "},"3":{"ha":467,"x_min":68,"x_max":444,"o":"m 164 1057 q 281 1051 224 1066 q 378 996 338 1036 q 431 898 417 956 q 411 753 444 840 q 294 568 377 666 q 308 559 296 568 q 325 549 321 551 q 340 537 328 546 q 358 523 353 528 q 374 508 363 518 q 390 489 385 497 q 404 469 395 481 q 416 446 412 457 q 424 419 420 434 q 430 389 428 405 q 429 323 434 354 q 415 267 425 292 q 385 218 406 243 q 347 176 364 193 q 297 137 329 159 q 242 102 264 115 q 182 67 220 90 q 111 69 138 42 q 96 121 90 90 q 132 161 102 150 q 180 184 152 169 q 241 224 208 200 q 300 281 275 248 q 328 348 325 315 q 326 386 330 368 q 316 415 322 404 q 296 439 310 426 q 273 458 281 452 q 243 476 264 464 q 215 494 223 489 q 183 521 195 508 q 169 547 171 534 q 170 571 168 560 q 182 596 172 582 q 201 621 192 610 q 226 648 210 631 q 251 676 241 665 q 324 895 365 813 q 239 954 301 941 q 158 945 189 964 q 152 940 155 943 q 95 934 124 915 q 69 981 70 950 q 118 1044 68 1022 q 164 1057 138 1053 z "},"4":{"ha":484,"x_min":21,"x_max":453,"o":"m 349 151 q 336 223 341 168 q 328 374 332 277 q 323 489 324 470 q 191 464 248 460 q 105 499 135 468 q 54 577 75 530 q 31 681 34 624 q 25 793 28 737 q 28 896 23 848 q 28 992 31 973 q 52 1057 21 1036 q 104 1061 77 1076 q 134 992 134 1043 q 131 918 133 968 q 135 673 124 742 q 212 564 151 564 q 238 568 224 564 q 318 602 260 574 q 307 907 306 861 q 333 1018 309 998 q 369 1027 346 1029 q 400 1013 387 1025 q 414 980 412 1000 q 417 788 415 904 q 428 455 420 672 q 446 189 436 239 q 434 136 453 155 q 388 120 414 116 q 349 151 361 125 z "},"5":{"ha":472,"x_min":17,"x_max":477,"o":"m 17 195 q 27 225 17 212 q 52 243 37 238 q 85 241 67 249 q 118 210 104 233 q 199 213 159 198 q 268 260 239 228 q 315 338 297 292 q 335 433 333 385 q 320 531 338 481 q 263 616 302 580 q 233 638 248 631 q 205 645 218 645 q 184 644 193 646 q 167 639 176 643 q 157 635 157 635 q 106 642 129 626 q 81 694 84 659 q 75 796 79 732 q 67 969 60 912 q 93 1040 74 1026 q 174 1056 111 1053 q 278 1062 233 1059 q 340 1068 324 1066 q 370 1070 356 1070 q 399 1065 383 1069 q 440 1035 429 1058 q 441 991 451 1013 q 393 963 431 968 q 287 959 355 958 q 175 951 220 959 q 174 871 172 935 q 182 752 176 807 q 183 752 182 752 q 331 695 267 749 q 415 566 388 647 q 390 245 477 379 q 235 120 334 159 q 83 108 149 87 q 17 188 21 128 q 17 195 17 192 z "},"6":{"ha":480,"x_min":24,"x_max":467,"o":"m 198 747 q 187 720 191 730 q 228 708 195 717 q 287 690 262 700 q 369 633 331 672 q 431 539 408 593 q 460 426 454 486 q 447 301 467 366 q 380 180 427 236 q 230 113 313 101 q 97 205 153 123 q 28 480 24 312 q 210 1006 34 730 q 229 1035 219 1020 q 268 1064 245 1058 q 309 1060 290 1070 q 332 1028 327 1050 q 336 1008 336 1014 q 334 995 337 1002 q 324 982 330 988 q 307 959 318 977 q 281 919 295 942 q 244 850 267 896 q 198 747 222 805 m 153 606 q 159 295 109 406 q 236 222 187 231 q 317 259 283 214 q 357 437 365 320 q 336 507 354 479 q 277 575 317 535 q 169 616 251 600 q 157 616 160 617 q 153 606 155 614 z "},"7":{"ha":436,"x_min":66,"x_max":429,"o":"m 117 190 l 323 970 q 133 951 218 974 q 94 957 111 945 q 71 987 77 969 q 74 1024 66 1005 q 104 1051 83 1044 q 248 1072 145 1065 q 375 1072 351 1078 q 411 1052 398 1066 q 426 1012 423 1038 q 425 955 429 987 q 409 877 420 924 q 382 781 397 831 q 347 661 368 730 q 307 522 327 592 q 264 359 287 452 q 222 174 241 266 q 173 110 210 116 q 125 131 145 105 q 117 190 104 158 z "},"8":{"ha":460,"x_min":27,"x_max":450,"o":"m 43 292 q 34 419 32 365 q 48 519 37 474 q 73 593 60 565 q 96 641 85 621 q 106 665 106 661 q 67 907 27 793 q 166 1027 95 985 q 304 1048 237 1068 q 404 944 377 1028 q 353 559 448 808 q 415 277 450 407 q 319 144 392 190 q 178 117 250 99 q 62 224 99 137 q 43 292 49 254 m 295 259 q 320 321 316 282 q 315 397 323 360 q 290 466 306 434 q 233 536 233 468 q 212 556 231 538 q 182 581 193 573 q 137 419 142 528 q 164 254 133 315 q 256 225 199 188 q 295 259 275 237 m 161 847 q 162 786 156 814 q 188 731 169 758 q 221 689 207 705 q 264 648 236 674 q 273 640 270 643 q 304 747 291 673 q 310 895 317 821 q 267 954 304 947 q 199 926 233 960 q 161 847 168 894 z "},"9":{"ha":427,"x_min":14,"x_max":410,"o":"m 62 194 q 148 327 82 206 q 236 516 214 448 q 219 520 230 517 q 179 539 208 523 q 126 581 151 556 q 76 655 102 606 q 38 770 50 705 q 81 983 14 897 q 206 1058 131 1046 q 339 1021 284 1071 q 401 877 393 972 q 388 668 410 780 q 328 465 366 557 q 246 290 290 373 q 169 159 202 208 q 119 94 136 110 q 56 83 89 64 q 26 132 30 100 q 62 194 22 172 m 235 956 q 142 880 161 953 q 154 732 123 814 q 231 629 182 656 q 269 617 250 618 q 290 694 279 627 q 301 829 302 760 q 286 931 300 905 q 235 956 272 957 z "},"\u0000":{"ha":0,"x_min":0,"x_max":0,"o":""},"\n":{"ha":0,"x_min":0,"x_max":0,"o":""},"\r":{"ha":0,"x_min":0,"x_max":0,"o":""}," ":{"ha":276,"x_min":0,"x_max":0,"o":""},"!":{"ha":197,"x_min":39,"x_max":158,"o":"m 150 374 q 119 328 148 341 q 67 333 90 314 q 47 395 45 352 q 48 550 50 460 q 43 722 46 641 q 41 883 39 803 q 54 1008 43 964 q 85 1046 60 1037 q 132 1042 109 1056 q 157 1000 155 1029 q 155 978 158 987 q 148 948 152 969 q 143 859 144 927 q 147 659 142 790 q 151 516 150 606 q 150 374 152 427 m 106 222 q 141 207 127 222 q 155 172 156 191 q 140 137 155 151 q 105 123 126 123 q 70 137 84 123 q 56 172 56 152 q 70 208 55 193 q 106 222 85 223 z "},"\"":{"ha":296,"x_min":21,"x_max":271,"o":"m 130 1003 q 128 950 130 995 q 127 847 125 906 q 94 775 130 789 q 44 785 67 764 q 25 823 26 800 q 29 1007 21 962 q 49 1040 33 1029 q 82 1051 64 1052 q 114 1037 99 1050 q 130 1003 128 1025 m 271 1003 q 269 950 271 995 q 269 847 267 906 q 235 775 271 789 q 185 785 208 764 q 166 823 168 800 q 170 1007 162 962 q 190 1040 174 1029 q 223 1051 205 1052 q 255 1037 240 1050 q 271 1003 269 1025 z "},"#":{"ha":703,"x_min":7,"x_max":690,"o":"m 647 684 q 616 686 637 682 q 564 686 594 690 q 544 583 559 675 q 525 460 528 492 q 566 459 541 459 q 598 457 591 458 q 617 451 606 456 q 637 434 629 446 q 646 382 658 410 q 605 351 634 354 q 584 353 601 350 q 551 357 567 356 q 510 353 534 358 q 494 259 500 298 q 485 209 487 221 q 480 183 482 197 q 475 145 478 169 q 441 97 470 110 q 388 105 412 85 q 372 169 364 125 q 404 355 402 334 q 314 355 389 357 q 224 349 239 353 q 212 276 218 313 q 204 217 206 239 q 198 175 201 196 q 191 143 194 153 q 182 123 188 132 q 167 111 176 114 q 146 106 159 107 q 114 111 126 105 q 97 131 102 117 q 92 161 92 144 q 94 200 91 177 q 102 243 98 222 q 111 292 106 264 q 117 339 115 319 q 85 337 109 340 q 45 339 62 334 q 20 368 28 345 q 33 424 7 400 q 49 434 41 431 q 65 439 58 438 q 93 443 73 440 q 131 448 113 445 q 142 516 134 460 q 156 623 150 572 l 163 673 q 147 672 159 673 q 130 670 135 671 q 114 670 125 670 q 97 670 102 669 q 83 673 92 671 q 69 678 74 674 q 59 686 64 682 q 51 699 54 691 q 47 715 48 706 q 61 755 45 741 q 98 771 77 769 q 144 775 119 773 q 176 780 169 777 q 187 842 181 799 q 201 916 193 886 q 223 961 210 947 q 269 977 245 980 q 306 951 292 973 q 309 907 320 930 q 283 789 296 880 q 382 788 296 787 q 474 791 467 789 q 484 847 481 813 q 490 909 488 882 q 497 962 492 937 q 515 1002 502 988 q 552 1014 529 1016 q 587 999 576 1012 q 598 962 598 985 q 595 913 599 938 q 587 854 592 889 q 583 794 583 819 q 599 792 586 792 q 626 791 612 792 q 655 787 640 791 q 679 771 669 783 q 690 739 689 759 q 678 704 690 720 q 647 684 666 688 m 420 462 q 456 685 454 663 q 357 686 427 688 q 268 680 288 684 q 252 563 262 639 q 238 456 242 486 q 420 462 410 459 z "},"$":{"ha":473,"x_min":17,"x_max":467,"o":"m 368 701 q 342 731 349 711 q 342 766 336 751 q 322 795 351 787 q 275 795 293 802 l 275 629 q 377 511 345 565 q 402 416 408 458 q 366 343 396 375 q 279 285 335 312 q 279 249 279 267 q 280 221 279 231 q 281 200 281 211 q 281 185 281 190 q 280 175 281 181 q 280 168 280 169 q 279 162 280 166 q 277 157 277 159 q 274 152 276 156 q 250 127 266 136 q 217 120 235 118 q 188 132 199 122 q 173 155 176 142 q 167 184 169 168 q 166 215 165 200 q 165 244 168 231 q 93 225 110 228 q 57 230 76 223 q 23 270 29 242 q 34 320 17 298 q 79 341 50 343 q 86 341 80 340 q 93 341 92 342 q 100 343 94 341 q 109 345 106 345 q 119 348 111 345 q 131 352 127 351 q 145 357 135 353 q 163 363 156 360 q 167 448 166 376 q 165 570 168 521 q 145 585 153 579 q 125 599 137 591 q 103 615 114 607 q 46 677 64 644 q 33 745 28 711 q 70 816 37 780 q 162 883 103 852 q 162 917 162 897 q 161 946 161 937 q 162 966 161 954 q 165 984 163 979 q 171 997 167 990 q 180 1008 174 1003 q 237 1020 206 1031 q 255 1009 248 1016 q 267 997 262 1002 q 272 978 271 991 q 274 959 274 965 q 274 937 275 954 q 274 914 274 920 q 280 910 277 911 q 285 909 283 909 q 291 909 287 909 q 296 909 294 909 q 439 842 399 909 q 452 745 467 796 q 409 695 440 703 q 368 701 390 690 m 163 713 q 162 749 165 738 q 146 731 151 743 q 163 713 153 718 m 279 453 l 279 416 q 289 434 291 420 q 279 453 288 447 z "},"%":{"ha":637,"x_min":9,"x_max":627,"o":"m 530 1060 q 554 1041 547 1051 q 559 1013 562 1031 q 549 974 557 994 q 522 914 540 953 q 483 833 503 875 q 431 721 462 791 q 370 576 399 650 q 279 329 323 455 q 213 139 235 203 q 183 62 191 75 q 160 55 179 56 q 122 58 142 54 q 90 77 102 62 q 83 111 77 91 q 224 510 150 319 q 340 793 298 701 q 446 1017 382 886 q 530 1060 479 1086 m 581 399 q 615 346 604 375 q 626 288 627 316 q 618 230 626 259 q 595 176 611 200 q 560 132 580 153 q 516 102 541 112 q 467 90 492 92 q 416 101 442 88 q 323 227 336 139 q 353 373 313 302 q 448 452 391 438 q 581 399 517 468 m 465 201 q 513 272 507 226 q 474 342 519 317 q 445 311 460 338 q 433 249 431 283 q 465 201 435 216 m 316 813 q 269 733 300 765 q 202 692 238 702 q 130 689 167 682 q 65 719 93 696 q 23 782 37 741 q 17 874 9 823 q 108 1013 34 983 q 231 1002 166 1036 q 313 912 290 970 q 316 813 332 863 m 130 819 q 167 799 139 789 q 205 836 191 808 q 195 894 224 872 q 180 902 188 899 q 146 906 161 909 q 130 819 117 862 z "},"&":{"ha":606,"x_min":12,"x_max":589,"o":"m 485 292 q 522 251 498 276 q 557 213 546 226 q 578 182 568 200 q 587 150 589 164 q 571 121 585 136 q 544 102 558 106 q 519 102 530 98 q 493 117 507 106 q 469 139 479 128 q 444 168 459 151 q 420 193 429 184 q 182 58 296 60 q 58 121 103 57 q 26 277 12 186 q 101 431 40 359 q 134 468 112 444 q 174 511 157 492 q 159 542 173 515 q 132 596 144 569 q 107 656 119 623 q 87 747 90 701 q 93 833 84 793 q 120 908 102 873 q 165 968 139 943 q 223 1007 191 993 q 290 1022 256 1021 q 361 1007 323 1023 q 432 958 398 991 q 479 889 465 926 q 489 812 494 852 q 471 735 484 772 q 430 655 458 699 q 377 578 402 611 q 317 502 353 545 q 406 389 348 454 q 421 414 413 398 q 435 445 429 429 q 449 477 441 460 q 465 507 457 495 q 484 530 473 519 q 508 540 495 540 q 538 534 520 541 q 561 516 553 527 q 569 491 569 506 q 565 461 568 476 q 551 425 561 446 q 531 385 541 404 q 508 340 522 367 q 485 292 494 313 m 309 907 q 281 909 298 913 q 248 890 264 904 q 219 853 232 876 q 200 801 205 831 q 201 734 195 770 q 254 602 209 693 q 326 699 289 640 q 374 804 363 758 q 367 862 384 841 q 309 907 350 884 m 161 323 q 138 212 121 261 q 189 170 150 174 q 313 240 245 165 q 347 283 330 260 q 240 414 311 327 q 205 380 233 411 q 161 323 177 349 z "},"'":{"ha":154,"x_min":21,"x_max":130,"o":"m 130 1003 q 128 950 130 995 q 127 847 125 906 q 94 775 130 789 q 44 785 67 764 q 25 823 26 800 q 29 1007 21 962 q 49 1040 33 1029 q 82 1051 64 1052 q 114 1037 99 1050 q 130 1003 128 1025 z "},"(":{"ha":286,"x_min":24,"x_max":270,"o":"m 236 205 q 266 148 270 186 q 235 98 262 115 q 160 115 198 77 l 159 117 q 35 471 47 233 q 75 838 24 658 q 170 1031 115 982 q 243 1033 210 1065 q 260 1002 258 1018 q 253 968 262 986 q 230 921 245 951 q 199 855 215 890 q 168 761 183 820 q 146 633 153 701 q 145 463 138 538 q 168 333 151 388 q 203 245 185 277 q 236 205 221 214 z "},")":{"ha":279,"x_min":14,"x_max":243,"o":"m 109 1016 q 188 885 156 972 q 232 696 220 798 q 241 486 243 595 q 223 289 239 377 q 179 142 208 201 q 115 80 150 84 q 71 94 89 77 q 51 133 52 111 q 63 176 50 156 q 116 303 98 220 q 135 465 135 387 q 127 608 134 542 q 98 774 114 706 q 69 870 82 842 q 44 915 56 899 q 26 942 33 931 q 17 968 18 952 q 30 1011 14 994 q 67 1030 46 1029 q 109 1016 89 1031 z "},"*":{"ha":516,"x_min":21,"x_max":497,"o":"m 316 783 q 359 753 335 768 q 401 727 382 738 q 438 704 419 716 q 469 682 457 692 q 489 660 481 671 q 496 635 497 648 q 486 608 496 623 q 440 582 472 585 q 390 605 408 579 q 365 626 385 612 q 327 651 344 641 q 308 662 311 661 q 304 646 302 659 q 308 613 307 632 q 308 575 309 593 q 295 544 307 557 q 258 531 282 531 q 215 553 226 531 q 202 612 203 576 q 197 660 201 649 q 177 639 189 653 q 155 612 165 625 q 132 585 145 598 q 108 565 119 572 q 82 559 96 557 q 53 572 67 560 q 35 603 37 587 q 45 639 33 619 q 72 676 57 659 q 111 720 86 692 q 151 766 136 747 q 131 787 146 774 q 99 810 115 799 q 64 835 82 821 q 36 862 47 849 q 23 892 26 876 q 35 925 21 909 q 73 946 52 946 q 110 933 94 945 q 149 902 126 921 q 182 877 171 883 q 187 915 186 888 q 187 969 188 942 q 200 1018 186 997 q 241 1038 213 1038 q 271 1029 260 1038 q 286 1005 282 1021 q 290 976 290 989 q 290 941 291 962 q 290 911 290 920 q 311 926 297 911 q 339 957 325 941 q 376 983 354 974 q 420 981 397 993 q 447 943 444 968 q 431 899 451 917 q 373 843 415 886 q 316 783 332 800 z "},"+":{"ha":422,"x_min":14,"x_max":409,"o":"m 374 610 q 400 586 391 602 q 406 551 409 570 q 394 522 404 532 q 368 507 384 511 q 337 502 352 503 q 301 501 321 501 q 270 498 281 500 q 274 428 271 459 q 279 385 277 396 q 280 363 281 374 q 275 342 279 353 q 253 314 269 324 q 220 305 238 304 q 188 316 199 307 q 171 345 176 326 q 164 384 165 365 q 161 435 163 403 q 157 489 159 467 q 100 480 130 490 q 53 477 71 470 q 26 498 36 483 q 15 529 16 513 q 26 562 14 546 q 60 587 37 578 q 151 604 80 594 q 150 630 151 614 q 149 660 149 647 q 151 686 149 672 q 162 710 153 700 q 188 724 172 720 q 233 718 212 732 q 259 680 254 705 q 264 614 262 658 q 326 614 281 612 q 374 610 370 616 z "},",":{"ha":166,"x_min":12,"x_max":145,"o":"m 143 145 q 144 115 144 135 q 136 38 145 73 q 114 -4 130 15 q 85 -22 102 -18 q 35 -7 54 -29 q 27 47 12 20 q 41 112 41 73 q 41 120 41 115 q 41 129 41 126 q 31 159 41 146 q 26 210 14 180 q 51 235 33 227 q 87 238 68 243 q 134 194 119 229 q 143 145 140 178 z "},"-":{"ha":316,"x_min":13,"x_max":301,"o":"m 186 618 q 203 618 189 618 q 225 618 218 618 q 247 617 233 618 q 269 612 260 616 q 285 602 277 608 q 297 584 294 595 q 300 559 301 573 q 288 524 300 536 q 254 508 277 512 q 208 505 232 505 q 147 503 184 505 q 81 496 111 502 q 39 506 58 492 q 16 543 20 519 q 17 574 13 561 q 35 595 21 587 q 61 607 48 603 q 98 614 73 612 q 137 616 122 616 q 179 616 151 616 q 186 616 184 616 l 186 618 z "},".":{"ha":127,"x_min":13,"x_max":113,"o":"m 64 226 q 99 211 84 225 q 113 176 113 196 q 98 140 113 155 q 62 125 82 125 q 27 141 41 126 q 14 177 13 157 q 29 212 14 197 q 64 226 44 227 z "},"/":{"ha":538,"x_min":61,"x_max":474,"o":"m 368 1019 q 410 1045 383 1044 q 455 1027 437 1046 q 469 979 474 1007 q 426 853 465 960 q 319 544 387 746 q 190 126 252 341 q 170 74 178 86 q 153 60 162 65 q 92 64 122 41 q 72 125 61 87 q 198 531 125 311 q 316 881 270 751 q 368 1019 362 1011 z "},":":{"ha":153,"x_min":21,"x_max":131,"o":"m 21 766 q 37 804 21 788 q 76 821 52 821 q 115 804 100 821 q 131 766 131 788 q 115 728 131 744 q 76 712 99 712 q 37 728 53 712 q 21 766 21 743 m 131 365 q 115 326 131 342 q 76 310 99 310 q 37 326 53 310 q 21 364 21 341 q 37 402 21 386 q 76 419 52 419 q 115 403 100 419 q 131 365 131 387 z "},";":{"ha":186,"x_min":17,"x_max":162,"o":"m 159 325 q 156 252 162 289 q 129 186 149 214 q 80 159 109 159 q 42 174 58 159 q 25 208 26 189 q 35 244 24 227 q 48 291 47 262 q 40 330 50 319 q 39 389 17 359 q 91 414 59 415 q 151 364 132 414 q 159 325 157 347 m 30 766 q 45 804 30 788 q 85 821 61 821 q 124 804 109 821 q 140 766 140 788 q 124 728 140 744 q 85 712 109 712 q 46 728 62 712 q 30 766 30 743 z "},"<":{"ha":399,"x_min":11,"x_max":381,"o":"m 342 451 q 377 406 372 436 q 361 356 381 376 q 309 342 340 335 q 236 380 289 347 q 142 445 182 413 q 70 504 96 482 q 31 547 44 525 q 14 579 17 570 q 28 609 11 589 q 62 639 46 629 q 123 677 78 649 q 275 777 214 734 q 303 790 289 787 q 330 789 318 793 q 352 778 342 785 q 366 759 361 770 q 370 735 370 747 q 362 709 370 723 q 339 684 354 696 q 165 569 292 649 q 182 555 167 568 q 200 542 198 543 q 217 530 203 540 q 234 517 231 519 q 250 505 238 514 q 268 493 262 496 q 285 483 274 490 q 303 471 296 475 q 321 461 311 467 q 342 451 332 456 z "},"=":{"ha":401,"x_min":14,"x_max":389,"o":"m 323 500 q 371 474 353 501 q 374 418 389 448 q 366 404 370 409 q 352 394 361 398 q 335 389 343 390 q 306 386 326 387 q 267 384 286 384 q 211 381 248 383 q 138 378 174 380 q 108 375 133 378 q 71 374 83 372 q 28 400 42 376 q 24 449 14 424 q 62 482 34 475 q 323 500 104 493 m 56 657 q 23 697 28 669 q 37 747 18 726 q 87 764 56 769 q 221 767 122 758 q 337 770 320 776 q 368 746 358 764 q 376 709 378 728 q 359 675 374 690 q 323 659 345 661 q 310 659 323 659 l 297 659 l 297 661 q 257 657 284 659 q 215 653 229 654 q 177 650 200 652 q 138 648 153 648 q 106 649 123 648 q 77 651 90 649 q 56 657 65 654 z "},">":{"ha":389,"x_min":22,"x_max":382,"o":"m 116 776 q 210 722 151 755 q 347 638 321 660 q 368 578 382 608 q 283 493 355 550 q 222 446 265 479 q 129 372 164 399 q 47 357 81 334 q 22 406 22 374 q 49 454 23 437 q 130 518 60 462 q 215 587 200 574 q 155 623 195 600 q 85 662 116 645 q 50 685 55 680 q 31 725 32 703 q 42 761 30 747 q 74 783 55 776 q 116 776 94 789 z "},"?":{"ha":334,"x_min":16,"x_max":318,"o":"m 106 1050 q 170 1059 140 1062 q 225 1046 199 1057 q 269 1014 250 1035 q 299 965 287 992 q 315 904 311 939 q 314 834 318 870 q 295 756 310 798 q 256 675 280 715 q 194 553 220 613 q 159 457 169 492 q 140 394 150 422 q 118 355 131 366 q 80 349 104 345 q 43 373 57 351 q 40 425 30 394 q 111 615 74 533 q 169 731 148 698 q 202 801 189 765 q 213 878 215 838 q 205 924 212 907 q 188 948 198 942 q 165 955 177 954 q 141 951 154 956 q 118 941 128 946 q 98 931 107 936 q 86 925 89 926 q 35 946 52 920 q 36 1005 16 974 q 106 1050 56 1036 m 119 228 q 144 181 142 214 q 113 130 139 146 q 83 122 100 121 q 56 133 67 123 q 37 186 29 154 q 65 226 43 212 q 119 228 92 243 z "},"@":{"ha":662,"x_min":9,"x_max":654,"o":"m 387 953 q 607 841 545 949 q 633 648 654 759 q 557 495 614 553 q 423 458 494 432 q 380 482 401 466 q 351 459 364 468 q 321 445 337 450 q 289 441 306 440 q 252 451 271 443 q 183 506 205 469 q 165 584 161 543 q 187 665 169 625 q 238 733 205 705 q 308 769 271 762 q 346 769 329 773 q 378 756 362 765 q 402 746 394 748 q 436 716 426 740 q 446 665 446 692 q 448 608 446 638 q 460 565 450 578 q 510 623 491 583 q 530 703 528 662 q 508 782 531 745 q 439 832 485 819 q 233 789 321 867 q 145 633 166 730 q 161 471 124 538 q 239 408 189 423 q 314 400 296 394 q 351 418 332 406 q 389 431 370 431 q 437 397 426 429 q 423 331 450 363 q 288 286 382 281 q 256 289 272 287 q 62 416 123 308 q 31 637 9 511 q 135 850 52 762 q 385 953 237 956 q 387 953 387 953 m 292 557 q 313 601 304 571 q 322 656 321 631 q 288 615 300 637 q 276 576 275 593 q 292 557 277 560 z "},"A":{"ha":554,"x_min":3,"x_max":547,"o":"m 346 1052 q 396 975 373 1031 q 436 833 419 918 q 460 699 452 749 q 477 579 469 649 q 478 574 478 576 q 479 569 478 572 q 479 564 479 566 q 531 533 515 555 q 536 487 547 511 q 492 450 526 463 q 500 321 492 389 q 516 210 508 254 q 527 127 524 167 q 522 64 530 87 q 488 33 513 41 q 423 50 452 19 q 409 118 394 81 q 410 120 409 119 q 408 172 412 126 q 404 211 407 182 q 378 456 391 335 q 281 458 361 458 q 190 455 201 457 q 159 246 178 426 q 140 63 141 66 q 122 36 135 46 q 94 24 109 25 q 64 30 78 24 q 41 52 50 35 q 34 92 33 68 q 50 275 41 199 q 65 389 58 351 q 72 439 71 427 q 58 443 71 441 q 32 453 45 445 q 12 477 19 460 q 12 519 3 498 q 41 549 20 541 q 91 563 54 555 q 114 669 94 566 q 252 1050 175 982 q 346 1052 296 1089 m 298 914 q 240 729 270 856 q 210 570 210 602 q 288 568 218 568 q 365 571 357 568 q 334 768 359 645 q 298 914 309 890 z "},"B":{"ha":508,"x_min":35,"x_max":494,"o":"m 156 966 q 158 965 157 966 q 159 964 159 964 q 243 1031 201 1008 q 322 1053 286 1053 q 389 1036 358 1052 q 442 990 420 1020 q 488 836 494 922 q 465 729 485 778 q 417 650 444 680 q 363 598 390 620 q 317 564 337 577 q 296 545 298 551 q 307 538 297 543 q 337 522 317 533 q 376 494 357 511 q 438 414 414 461 q 466 318 461 368 q 458 219 471 269 q 417 129 446 169 q 339 60 389 88 q 226 27 289 33 q 196 24 216 26 q 166 21 176 22 q 139 20 155 20 q 114 22 123 20 q 94 30 104 25 q 78 45 84 35 q 71 70 73 56 q 43 578 52 192 q 47 1002 35 964 q 70 1034 52 1023 q 105 1044 87 1045 q 139 1027 123 1043 q 156 983 154 1011 l 156 966 m 158 466 q 175 135 158 320 q 296 170 248 137 q 354 248 345 202 q 349 341 363 294 q 283 423 335 387 q 158 466 232 459 m 163 708 q 155 603 147 648 q 353 753 299 652 q 372 884 390 823 q 326 938 359 929 q 238 889 283 950 q 163 708 194 828 z "},"C":{"ha":479,"x_min":-5,"x_max":471,"o":"m 258 925 q 189 838 220 905 q 144 679 157 770 q 133 490 130 587 q 165 307 135 394 q 248 172 195 220 q 316 178 281 142 q 361 270 351 213 q 394 314 366 302 q 446 309 421 325 q 471 260 471 293 q 449 170 470 213 q 394 98 428 126 q 321 55 361 69 q 239 52 282 41 q 163 98 197 62 q 26 618 -5 273 q 156 984 48 875 q 302 1042 224 1053 q 403 981 366 1034 q 442 840 463 895 q 399 804 430 808 q 345 832 366 800 q 334 857 338 843 q 329 872 332 860 q 323 890 326 884 q 317 907 321 897 q 308 921 313 917 q 296 929 303 925 q 279 932 289 933 q 258 925 270 930 z "},"D":{"ha":511,"x_min":36,"x_max":500,"o":"m 168 996 q 172 964 170 989 q 388 1006 302 1096 q 479 738 458 932 q 469 389 500 557 q 431 254 455 308 q 417 230 423 239 q 317 118 367 157 q 195 70 268 79 q 156 65 173 67 q 125 64 139 64 q 100 66 111 64 q 82 71 90 67 q 68 80 73 75 q 58 93 62 84 q 52 109 54 102 q 48 131 50 117 q 46 156 47 144 q 45 186 45 168 q 43 225 43 212 q 40 528 36 356 q 52 845 45 701 q 62 996 60 989 q 92 1034 69 1023 q 138 1034 115 1044 q 168 996 161 1023 m 161 178 q 250 209 211 182 q 312 279 289 236 q 352 378 336 323 q 372 494 368 433 q 377 614 377 554 q 370 730 377 675 q 353 829 362 785 q 331 900 343 872 q 307 931 319 927 q 259 893 288 927 q 217 831 231 860 q 164 642 182 755 q 147 431 146 528 q 152 262 147 333 q 161 178 157 191 z "},"E":{"ha":458,"x_min":30,"x_max":460,"o":"m 346 929 q 249 936 332 935 q 163 935 166 937 q 156 764 161 926 q 153 594 151 602 q 222 593 190 592 q 282 593 254 595 q 329 587 309 591 q 359 569 349 583 q 369 534 370 556 q 357 498 368 511 q 325 483 345 486 q 278 480 305 480 q 220 482 252 481 q 153 480 188 484 q 149 402 153 480 q 210 133 146 189 q 294 123 243 103 q 347 147 319 133 q 386 167 374 161 q 410 171 397 172 q 438 157 424 170 q 455 105 460 136 q 425 62 450 75 q 62 176 134 -94 q 39 551 30 298 q 41 614 39 572 q 44 698 43 673 q 46 842 45 755 q 57 1005 47 972 q 110 1043 66 1039 q 272 1047 169 1048 q 394 1039 376 1046 q 432 992 429 1026 q 408 937 434 959 q 346 929 381 915 z "},"F":{"ha":433,"x_min":36,"x_max":449,"o":"m 158 954 q 153 794 153 930 q 157 623 153 659 q 193 624 172 623 q 225 624 214 624 q 252 624 237 624 q 275 623 267 623 q 294 620 283 622 q 310 615 304 618 q 322 608 315 612 q 332 597 328 604 q 338 583 336 591 q 328 524 350 551 q 306 509 317 512 q 284 507 296 505 q 237 511 272 509 q 160 511 202 513 q 159 361 156 456 q 170 176 163 267 l 176 85 q 163 52 175 66 q 132 33 151 37 q 94 36 109 27 q 70 69 79 45 q 58 130 62 92 q 52 219 54 168 q 50 334 51 269 q 50 361 50 351 q 50 386 50 370 q 50 414 50 401 q 43 739 47 549 q 43 996 36 941 q 88 1061 50 1051 q 253 1067 125 1069 q 407 1057 382 1065 q 440 1028 431 1049 q 444 988 449 1008 q 419 956 438 968 q 375 949 401 943 q 289 955 354 954 q 158 954 224 956 z "},"G":{"ha":540,"x_min":21,"x_max":519,"o":"m 334 966 q 251 936 288 968 q 193 858 214 905 q 159 763 172 812 q 142 679 146 714 q 142 639 139 644 q 177 646 144 639 q 243 656 210 654 q 292 657 263 656 q 357 650 321 658 q 424 630 392 642 q 479 593 455 618 q 511 533 504 567 q 518 468 517 500 q 513 397 519 435 q 502 333 507 359 q 485 260 496 306 q 374 98 456 145 q 218 89 300 56 q 76 229 130 124 q 21 496 21 338 q 132 966 21 806 q 290 1079 200 1065 q 425 1038 368 1091 q 473 960 457 1007 q 481 781 519 830 q 428 766 460 755 q 389 806 399 776 q 386 828 386 817 q 372 914 387 863 q 334 966 357 965 m 332 539 q 277 545 297 544 q 215 540 256 547 q 132 514 174 533 q 195 249 132 344 q 288 186 238 186 q 363 247 336 186 q 376 285 372 264 q 398 382 391 342 q 407 450 406 422 q 405 494 408 478 q 391 519 402 509 q 367 532 379 529 q 332 539 355 536 z "},"H":{"ha":647,"x_min":-2,"x_max":648,"o":"m 532 1025 q 531 974 532 1023 q 529 868 530 924 q 527 753 528 812 q 528 676 527 695 q 548 676 532 676 q 572 675 564 676 q 594 673 580 675 q 617 667 609 671 q 633 656 625 663 q 645 639 642 650 q 647 614 648 628 q 638 585 645 596 q 616 569 631 574 q 591 564 601 565 q 558 563 581 563 q 528 564 535 564 q 532 317 527 550 q 535 73 538 85 q 514 39 530 52 q 477 28 497 26 q 436 50 448 30 q 421 118 423 71 q 422 220 420 165 q 424 373 425 275 q 414 565 423 470 q 331 567 398 568 q 213 560 264 566 q 213 356 208 531 q 212 178 218 180 q 189 153 204 162 q 156 145 173 144 q 128 154 138 147 q 112 177 117 161 q 105 213 106 193 q 103 268 103 233 q 103 340 102 303 q 103 435 104 376 q 99 552 102 494 q 80 554 94 554 q 50 554 66 555 q 20 563 35 553 q 1 597 6 574 q 3 628 -2 614 q 17 648 8 641 q 42 659 25 654 q 68 665 59 664 q 94 668 77 667 q 96 694 96 673 q 96 800 96 734 q 102 985 96 950 q 138 1031 108 1020 q 188 1024 164 1040 q 211 970 212 1007 q 209 912 210 954 q 208 841 208 871 q 206 775 207 811 q 206 713 205 739 q 208 675 206 688 q 211 673 210 674 q 213 672 212 673 q 218 672 215 671 q 225 672 221 672 q 238 674 230 673 q 255 675 245 675 q 280 677 265 676 q 314 678 296 677 q 357 679 332 679 q 412 679 382 679 l 414 682 q 416 795 416 703 q 418 964 416 887 q 426 1053 420 1040 q 462 1086 436 1079 q 510 1076 488 1093 q 532 1025 532 1059 z "},"I":{"ha":204,"x_min":39,"x_max":161,"o":"m 157 769 q 161 205 161 229 q 145 56 159 79 q 116 40 138 43 q 113 39 115 39 q 54 70 72 34 q 47 89 49 81 q 45 103 45 98 q 46 123 45 109 q 47 151 47 137 q 41 800 47 340 q 48 995 39 962 q 75 1023 55 1019 q 96 1023 82 1023 q 113 1022 106 1023 q 127 1016 120 1021 q 137 1005 134 1012 q 145 984 141 998 q 150 953 149 970 q 154 908 152 936 q 156 848 155 880 q 157 769 156 816 z "},"J":{"ha":509,"x_min":-1,"x_max":482,"o":"m 323 182 q 362 313 349 223 q 376 499 375 403 q 373 676 376 595 q 362 799 369 757 q 313 910 351 868 q 233 941 275 952 q 196 925 212 935 q 170 907 180 916 q 153 885 161 899 q 143 865 145 872 q 137 845 140 858 q 133 831 134 833 q 97 796 124 803 q 50 809 70 789 q 36 864 29 829 q 62 933 43 901 q 105 988 80 966 q 161 1025 130 1010 q 225 1043 192 1040 q 290 1039 258 1045 q 353 1012 323 1034 q 407 960 383 991 q 448 880 431 928 q 470 770 465 831 q 478 659 475 711 q 481 543 481 606 q 479 425 482 479 q 467 314 476 371 q 444 212 458 257 q 407 127 430 168 q 353 62 383 87 q 279 24 322 37 q 185 17 237 12 q 151 24 169 19 q 31 134 70 51 q 10 262 -1 201 q 54 318 20 312 q 76 317 64 320 q 106 296 95 311 q 114 262 117 281 q 122 183 109 217 q 160 136 135 150 q 215 119 185 121 q 274 134 244 117 q 323 182 304 151 z "},"K":{"ha":490,"x_min":36,"x_max":500,"o":"m 295 718 q 186 522 208 568 q 295 402 222 494 q 428 228 369 310 q 492 131 486 146 q 494 95 500 113 q 476 69 489 78 q 446 59 463 60 q 413 71 429 58 q 293 234 410 73 q 154 409 176 394 q 150 331 151 407 q 151 186 150 254 q 151 96 152 118 q 133 60 149 73 q 99 47 117 47 q 65 60 81 47 q 47 96 50 73 q 47 146 47 133 q 47 331 47 159 q 47 725 47 502 q 45 810 47 767 q 41 879 43 852 q 37 931 39 905 q 36 971 36 957 q 41 998 37 986 q 53 1016 45 1010 q 76 1025 62 1022 q 111 1019 97 1028 q 132 990 125 1010 q 143 945 139 970 q 147 886 146 920 q 147 821 147 852 q 148 750 147 789 q 152 683 149 712 q 201 760 157 682 q 287 917 245 838 l 328 996 q 370 1021 343 1020 q 413 1002 396 1022 q 421 954 430 981 q 384 876 415 935 q 323 768 352 817 l 295 718 z "},"L":{"ha":511,"x_min":28,"x_max":530,"o":"m 146 643 q 171 136 153 174 q 236 131 195 125 q 326 144 276 136 q 419 157 376 151 q 494 152 463 163 q 528 110 526 140 q 524 81 530 93 q 507 63 519 69 q 486 55 495 58 q 462 52 476 53 q 377 43 423 48 q 303 35 330 38 q 244 30 276 32 q 193 27 212 27 q 154 31 175 28 q 121 42 134 35 q 97 62 109 50 q 77 92 86 74 q 53 295 59 131 q 44 664 46 458 q 33 956 41 870 q 56 1014 28 995 q 108 1013 83 1031 q 138 945 134 995 q 140 912 138 933 q 142 885 141 891 q 143 861 142 880 q 144 830 144 843 q 145 789 144 817 q 145 728 145 760 q 146 643 146 695 z "},"M":{"ha":669,"x_min":38,"x_max":633,"o":"m 503 821 l 498 821 q 442 607 463 702 q 417 467 422 511 q 410 392 413 423 q 401 347 406 360 q 354 315 387 315 q 307 345 321 315 q 266 581 298 362 q 227 810 234 800 q 186 669 201 746 q 169 521 172 591 q 166 380 165 451 q 168 251 166 309 q 166 149 169 194 q 150 80 163 104 q 113 57 137 56 q 82 68 96 58 q 65 94 69 78 q 49 306 60 114 q 38 719 38 498 q 63 991 38 940 q 100 1020 75 1015 q 145 1005 126 1025 q 157 943 163 985 q 153 913 153 918 q 174 948 159 921 q 205 985 189 975 q 323 867 281 1040 q 349 734 329 845 q 357 703 354 705 q 366 733 358 706 q 380 784 373 760 q 398 844 387 808 q 420 907 409 880 q 444 962 431 935 q 471 1003 458 989 q 511 1026 488 1022 q 556 1012 534 1030 q 588 956 578 994 q 619 668 605 884 q 633 251 633 452 q 612 29 633 50 q 560 16 589 6 q 530 42 536 24 q 525 92 524 60 q 524 531 534 291 q 503 821 513 770 z "},"N":{"ha":612,"x_min":35,"x_max":576,"o":"m 297 320 q 248 439 283 353 q 191 572 212 525 q 151 656 170 620 q 148 616 149 652 q 148 517 146 580 q 154 378 149 454 q 169 208 158 303 q 194 25 179 113 q 179 -32 200 -12 q 131 -48 159 -53 q 90 -16 102 -43 q 64 145 77 15 q 43 426 51 275 q 37 720 35 576 q 50 916 38 863 q 69 947 55 935 q 100 961 83 960 q 134 952 117 963 q 162 918 152 941 q 254 706 212 804 q 321 549 296 608 q 367 441 347 489 q 398 369 387 393 q 415 327 408 344 q 427 301 422 310 q 434 288 431 292 q 444 272 437 283 q 457 397 449 285 q 465 673 465 510 q 446 943 464 837 q 461 1011 438 989 q 513 1023 484 1032 q 551 984 543 1013 q 575 667 576 867 q 560 277 574 467 q 535 61 547 87 q 490 24 522 29 q 435 44 458 19 q 368 170 422 58 q 297 320 313 281 z "},"O":{"ha":525,"x_min":-3,"x_max":533,"o":"m 486 688 q 463 224 533 412 q 334 54 416 100 q 182 55 256 11 q 54 256 94 106 q 52 789 -3 463 q 75 902 64 857 q 94 968 85 947 q 113 1001 102 990 q 130 1014 123 1013 q 149 1018 138 1015 q 170 1028 161 1021 q 177 1033 174 1031 q 183 1036 180 1034 q 192 1037 186 1037 q 200 1037 197 1037 q 212 1036 203 1037 q 224 1033 220 1034 q 241 1030 229 1032 q 262 1026 254 1027 q 337 991 302 1019 q 396 927 372 963 q 439 845 420 890 q 469 762 458 800 q 486 688 479 724 m 294 892 q 279 906 287 901 q 267 916 272 912 q 251 922 262 919 q 235 926 240 925 q 215 929 231 926 q 193 932 199 931 q 146 728 165 881 q 137 407 127 574 q 193 178 146 240 q 249 139 219 144 q 309 163 279 134 q 359 254 339 192 q 398 500 397 370 q 371 732 399 629 q 294 892 342 834 z "},"P":{"ha":501,"x_min":44,"x_max":505,"o":"m 47 970 q 63 1006 49 991 q 100 1017 77 1020 q 145 989 123 1015 q 350 1019 255 1081 q 464 846 424 970 q 486 584 505 716 q 376 373 465 437 q 152 344 288 309 q 150 209 145 338 q 148 60 154 80 q 116 31 139 37 q 74 37 94 24 q 51 75 54 49 q 45 345 46 123 q 45 763 44 568 q 47 970 46 958 m 188 865 q 152 745 157 803 q 146 455 146 686 q 232 433 194 436 q 295 443 269 430 q 339 478 321 455 q 368 538 357 501 q 382 616 378 574 q 385 711 386 658 q 342 874 384 804 q 263 934 306 936 q 188 865 221 932 z "},"Q":{"ha":515,"x_min":23,"x_max":498,"o":"m 452 24 q 430 17 441 18 q 412 20 420 16 q 396 31 404 23 q 381 46 387 39 q 368 63 376 53 q 355 79 359 73 q 302 51 307 54 q 252 39 279 40 q 194 48 225 38 q 136 84 163 58 q 85 155 109 111 q 46 266 60 199 q 27 425 32 333 q 35 637 23 516 q 52 773 43 713 q 71 873 62 833 q 91 942 80 913 q 112 987 102 972 q 132 1012 121 1002 q 151 1025 144 1022 q 169 1030 159 1027 q 182 1034 179 1032 q 214 1040 196 1042 q 253 1033 233 1038 q 297 1011 274 1027 q 341 977 319 996 q 384 928 363 958 q 422 866 405 899 q 453 790 439 833 q 473 699 467 747 q 483 385 498 534 q 462 277 477 328 q 432 198 446 227 q 418 165 418 169 q 444 132 430 149 q 465 106 458 114 q 475 90 471 99 q 479 70 479 80 q 452 24 479 39 m 339 245 q 374 350 361 288 q 386 478 386 412 q 379 613 387 545 q 355 740 372 681 q 315 845 338 800 q 262 913 293 890 q 199 928 232 936 q 158 776 176 869 q 134 579 140 683 q 133 381 127 475 q 166 221 139 288 q 240 144 194 155 q 279 157 261 139 q 264 168 273 161 q 251 179 256 175 q 239 190 245 184 q 230 200 233 195 q 224 212 227 205 q 221 226 221 218 q 224 242 221 233 q 254 276 231 267 q 302 270 277 285 q 317 259 309 266 q 339 245 326 252 z "},"R":{"ha":483,"x_min":40,"x_max":473,"o":"m 87 1048 q 113 1044 102 1049 q 130 1032 124 1039 q 140 1011 136 1025 q 145 988 144 998 q 147 961 146 978 q 149 937 148 945 q 202 997 175 972 q 254 1035 229 1022 q 304 1052 279 1047 q 350 1051 328 1056 q 390 1035 371 1046 q 425 1007 410 1024 q 450 967 439 989 q 467 921 461 945 q 473 868 473 896 q 467 812 473 840 q 436 718 456 764 q 393 638 416 673 q 346 573 370 604 q 297 522 321 543 q 256 485 274 500 q 224 460 237 469 q 211 450 212 450 q 307 344 225 431 q 424 189 406 237 q 393 121 443 137 q 358 122 373 115 q 327 150 344 128 q 293 199 311 172 q 237 271 275 227 q 153 359 199 316 q 155 221 151 345 q 153 85 158 97 q 110 47 144 51 q 60 73 76 43 q 52 95 53 85 q 52 119 50 104 q 53 142 53 134 q 43 926 40 819 q 60 1042 45 1027 q 85 1048 66 1046 q 87 1048 86 1048 m 253 904 q 167 726 193 827 q 151 537 141 624 q 338 749 282 620 q 363 904 376 838 q 324 952 354 950 q 253 904 292 955 z "},"S":{"ha":519,"x_min":17,"x_max":513,"o":"m 446 826 q 448 771 449 799 q 444 722 448 744 q 425 686 439 699 q 385 675 410 673 q 347 695 358 678 q 336 735 335 711 q 337 787 337 759 q 332 841 336 815 q 304 887 324 869 q 261 908 285 905 q 216 905 238 911 q 177 877 193 899 q 159 825 161 856 q 171 745 157 787 q 211 662 186 702 q 270 579 237 621 q 337 495 302 536 q 404 411 371 453 q 461 328 437 370 q 500 245 486 286 q 510 164 513 205 q 481 85 506 123 q 405 12 452 38 q 308 -18 358 -14 q 207 -5 258 -21 q 115 41 156 10 q 48 119 75 71 q 21 223 22 167 q 71 437 17 393 q 130 439 100 460 q 155 391 155 421 q 152 375 155 382 q 187 128 95 203 q 263 95 222 100 q 335 102 304 90 q 384 140 366 115 q 396 192 403 165 q 343 309 382 250 q 258 420 304 369 q 167 526 212 472 q 89 645 122 579 q 49 778 56 710 q 113 972 37 905 q 256 1019 172 1024 q 394 956 340 1015 q 446 826 442 904 z "},"T":{"ha":593,"x_min":-22,"x_max":612,"o":"m 247 113 q 241 219 243 132 q 238 356 239 294 q 232 583 237 418 q 220 946 227 747 q 122 945 208 954 q 12 948 37 937 q -16 979 -9 958 q -11 1021 -22 1001 q 25 1044 1 1040 q 301 1053 56 1048 q 575 1050 546 1057 q 603 1026 593 1044 q 608 989 612 1008 q 583 953 602 962 q 530 948 564 944 q 446 953 497 951 q 325 947 395 954 l 347 118 q 321 78 344 90 q 276 77 299 66 q 247 113 252 87 z "},"U":{"ha":554,"x_min":31,"x_max":529,"o":"m 416 90 q 411 191 419 108 q 397 279 403 274 q 326 106 355 154 q 172 43 261 -5 q 91 158 123 70 q 47 355 59 247 q 33 589 35 463 q 36 805 31 714 q 47 959 40 896 q 67 996 50 982 q 107 1007 85 1010 q 139 991 130 1003 q 149 950 149 980 q 144 884 149 920 q 136 775 140 848 q 136 626 133 703 q 137 577 136 616 q 139 515 138 538 q 142 451 140 493 q 147 382 144 410 q 154 317 150 355 q 164 254 158 279 q 178 203 170 229 q 196 160 185 177 q 218 136 206 144 q 296 303 250 146 q 362 631 342 459 q 371 719 367 674 q 378 794 376 764 q 382 856 380 825 q 387 907 385 887 q 393 945 389 926 q 401 975 397 964 q 413 992 406 985 q 429 1003 420 1000 q 452 1003 439 1005 q 477 992 468 1001 q 492 963 487 983 q 498 917 497 943 q 499 848 499 890 q 497 758 498 806 q 496 641 496 710 q 498 497 496 572 q 506 321 499 422 q 522 113 512 220 q 491 26 529 45 q 438 33 465 13 q 416 90 410 54 z "},"V":{"ha":512,"x_min":16,"x_max":506,"o":"m 124 935 q 132 787 130 833 q 144 634 135 741 q 162 461 153 528 q 190 312 172 395 q 229 172 207 230 q 328 528 269 220 q 401 963 387 837 q 429 1007 404 994 q 478 1008 454 1019 q 505 967 503 996 q 488 833 506 954 q 442 556 470 712 q 370 255 414 401 q 283 66 326 109 q 111 215 182 -33 q 27 774 52 418 q 20 954 16 922 q 48 995 24 982 q 98 992 73 1008 q 124 935 122 977 z "},"W":{"ha":838,"x_min":14,"x_max":833,"o":"m 372 286 q 370 286 372 286 q 368 286 369 286 q 308 100 332 151 q 186 50 255 -11 q 112 232 148 85 q 57 538 77 378 q 25 828 37 699 q 17 970 14 958 q 49 1008 24 998 q 99 1005 75 1019 q 127 956 123 991 q 148 751 136 880 q 167 552 159 622 q 191 390 174 481 q 230 225 207 298 q 256 308 236 225 q 297 481 277 390 q 323 585 318 573 q 381 627 341 627 q 430 600 414 627 q 453 525 447 573 q 464 422 459 477 q 487 299 469 368 q 536 176 505 231 q 601 319 570 215 q 653 545 632 424 q 690 783 673 667 q 713 975 706 899 l 721 1053 q 743 1085 726 1074 q 781 1095 760 1097 q 829 1041 824 1091 q 815 880 833 990 q 800 753 805 801 q 667 188 758 384 q 535 47 604 50 q 401 199 461 44 q 372 286 386 238 z "},"X":{"ha":511,"x_min":1,"x_max":511,"o":"m 11 100 q 204 532 79 220 q 123 733 157 647 q 74 860 89 819 q 51 926 60 901 q 41 958 42 951 q 38 969 40 964 q 29 983 36 973 q 30 1040 12 1010 q 74 1065 46 1067 q 136 1000 112 1063 q 140 990 138 995 q 163 913 150 959 q 194 825 177 868 q 259 673 212 781 q 325 853 271 690 q 391 1029 380 1016 q 418 1046 401 1043 q 451 1042 435 1050 q 478 1012 475 1031 q 446 884 481 985 q 412 787 437 857 q 356 631 378 692 q 337 587 349 612 q 335 485 315 545 q 499 117 355 425 q 502 70 511 92 q 468 41 492 47 q 410 66 433 31 q 357 183 395 88 q 264 396 309 305 q 228 320 260 394 q 156 157 196 245 q 94 39 115 68 q 67 20 83 24 q 37 20 51 15 q 13 36 24 24 q 1 64 2 47 q 11 100 1 81 z "},"Y":{"ha":447,"x_min":-11,"x_max":443,"o":"m 104 1008 q 116 965 105 1002 q 136 896 127 927 q 159 820 144 865 q 186 742 174 774 q 212 683 198 710 q 236 650 225 656 q 286 742 262 666 q 319 893 309 819 q 329 1006 330 968 q 356 1053 328 1038 q 412 1054 383 1067 q 442 1004 440 1040 q 441 961 443 993 q 431 873 439 930 q 409 761 423 817 q 365 646 395 705 q 296 551 336 587 q 298 484 296 530 q 300 410 300 438 q 306 236 302 339 q 305 72 311 104 q 263 33 299 40 q 225 36 240 28 q 203 68 211 45 q 194 122 196 92 q 191 201 191 153 q 192 298 191 249 q 191 415 193 347 q 183 545 189 483 q 116 626 146 570 q 60 763 91 672 q 11 922 29 854 l -7 989 q -3 1025 -11 1009 q 20 1049 5 1042 q 51 1057 35 1057 q 82 1044 67 1057 q 104 1008 97 1031 z "},"Z":{"ha":486,"x_min":-5,"x_max":493,"o":"m 4 192 q 75 353 16 241 q 199 573 134 465 q 322 788 264 682 q 389 933 380 894 q 319 932 357 938 q 258 919 281 926 q 196 895 235 911 q 148 876 156 879 q 98 884 119 865 q 79 931 77 903 q 109 970 81 959 q 129 979 111 971 q 160 992 146 987 q 200 1007 174 998 q 247 1022 226 1017 q 297 1034 269 1028 q 348 1040 325 1039 q 397 1038 372 1041 q 441 1025 422 1034 q 483 977 473 1010 q 482 900 493 943 q 448 801 471 856 q 391 689 425 747 q 321 571 357 631 q 247 453 284 510 q 180 344 210 396 q 130 251 151 292 q 105 181 109 210 q 117 142 101 153 q 183 118 143 125 q 259 111 224 111 q 328 107 295 110 q 381 93 361 105 q 401 54 401 80 q 389 18 402 33 q 355 0 375 2 q 328 0 351 1 q 270 2 304 -2 q 195 12 235 7 q 117 33 155 18 q 50 67 79 47 q 8 119 21 86 q 4 192 -5 151 z "},"[":{"ha":369,"x_min":41,"x_max":304,"o":"m 267 192 q 298 152 292 180 q 289 99 304 123 q 241 75 273 75 q 210 75 230 75 q 104 82 127 74 q 59 135 70 93 q 50 336 47 179 q 51 400 50 356 q 54 589 53 517 q 46 871 55 716 q 43 951 45 921 q 48 998 41 981 q 69 1021 56 1015 q 111 1028 82 1027 q 140 1030 125 1029 q 163 1031 156 1031 q 180 1032 171 1031 q 192 1032 189 1032 q 201 1031 196 1032 q 208 1030 205 1031 q 214 1027 211 1029 q 236 1010 227 1022 q 247 984 245 999 q 244 956 250 970 q 216 931 238 943 q 158 916 194 920 q 166 744 165 793 q 166 660 168 695 q 164 522 165 625 q 168 191 164 419 q 227 193 198 185 q 267 192 255 201 z "},"\\":{"ha":538,"x_min":65,"x_max":478,"o":"m 467 125 q 448 64 478 87 q 386 60 417 41 q 379 64 382 62 q 374 69 376 67 q 369 75 372 71 q 365 81 367 79 q 361 87 363 83 q 359 94 359 92 q 356 102 358 96 q 354 109 355 108 q 352 118 353 111 q 349 126 350 125 q 220 544 288 341 q 113 853 152 746 q 71 979 74 960 q 84 1027 65 1007 q 129 1045 102 1046 q 172 1019 156 1044 q 223 881 177 1011 q 341 531 269 751 q 467 125 414 311 z "},"]":{"ha":369,"x_min":64,"x_max":327,"o":"m 257 1028 q 299 1021 286 1027 q 320 998 313 1015 q 325 951 327 981 q 322 871 323 921 q 315 589 313 716 q 317 397 315 515 q 314 159 321 208 q 277 87 307 102 q 180 75 253 74 q 159 75 174 75 l 127 75 q 80 99 96 75 q 71 152 64 123 q 102 192 77 180 q 142 193 114 201 q 201 191 171 185 q 204 522 205 419 q 203 660 204 625 q 203 744 201 695 q 211 916 204 793 q 153 931 175 920 q 125 956 131 943 q 122 984 119 970 q 133 1010 124 999 q 155 1027 142 1022 q 161 1030 158 1029 q 168 1031 163 1031 q 177 1032 173 1032 q 189 1032 180 1032 q 205 1031 197 1031 q 228 1030 212 1031 q 257 1028 243 1029 z "},"^":{"ha":317,"x_min":20,"x_max":302,"o":"m 288 823 q 299 779 302 801 q 282 746 297 758 q 248 730 267 734 q 210 743 229 727 q 201 750 205 746 q 192 763 197 755 q 183 776 186 770 q 172 795 180 781 q 158 819 163 810 q 154 824 157 820 q 149 833 151 829 q 141 810 144 823 q 135 790 137 798 q 131 773 133 781 q 130 765 130 766 q 93 727 120 734 q 42 736 65 720 q 21 785 20 753 q 48 893 22 810 q 86 999 75 976 q 136 1032 102 1030 q 183 1011 165 1034 q 228 929 200 989 q 288 823 256 869 z "},"_":{"ha":604,"x_min":13,"x_max":590,"o":"m 315 248 q 381 252 338 249 q 441 255 421 254 q 491 256 460 256 q 537 252 522 256 q 567 240 551 248 q 586 219 583 233 q 586 185 590 205 q 566 153 582 165 q 530 142 549 140 q 489 143 503 144 q 449 141 475 143 q 409 140 422 140 q 315 137 362 139 q 236 133 268 135 q 172 129 204 130 q 120 126 140 127 q 81 125 100 125 q 52 129 62 126 q 32 137 41 132 q 20 152 24 143 q 16 174 16 161 q 50 229 13 214 q 201 245 82 241 q 315 250 309 250 l 315 248 z "},"a":{"ha":483,"x_min":13,"x_max":467,"o":"m 439 239 q 448 205 442 227 q 457 170 453 184 q 464 138 460 156 q 466 107 467 119 q 461 83 465 95 q 447 65 457 71 q 420 56 436 58 q 389 61 402 54 q 369 78 376 67 q 355 109 361 88 q 345 149 348 130 q 335 198 341 167 q 323 252 328 229 q 302 225 308 233 q 283 201 297 218 q 262 177 269 184 q 242 158 256 171 q 219 141 229 145 q 197 130 210 136 q 172 124 183 124 q 146 127 160 125 q 117 136 132 130 q 41 204 66 159 q 14 301 15 250 q 28 409 13 353 q 72 512 44 465 q 139 593 100 559 q 216 635 177 627 q 277 640 252 641 q 323 629 302 638 q 356 611 345 621 q 379 593 368 602 q 395 582 391 584 q 429 543 422 572 q 431 477 436 514 q 425 373 425 441 q 439 239 425 306 m 163 238 q 210 283 186 252 q 254 363 233 315 q 286 435 276 411 q 311 504 295 459 q 218 511 273 554 q 143 401 172 475 q 133 269 112 319 q 163 238 142 248 z "},"b":{"ha":464,"x_min":29,"x_max":454,"o":"m 230 667 q 380 595 318 682 q 444 395 436 516 q 401 177 454 265 q 214 79 339 71 q 191 82 203 80 q 165 85 181 83 q 120 51 145 56 q 76 62 95 45 q 54 111 58 79 q 34 467 38 254 q 35 833 29 679 q 49 1006 40 987 q 84 1037 60 1031 q 128 1031 107 1044 q 153 994 149 1019 q 152 912 155 983 q 144 769 148 842 q 144 631 141 696 q 161 640 150 633 q 180 651 172 647 q 201 660 187 655 q 230 667 214 665 m 249 196 q 313 249 292 208 q 334 343 334 290 q 286 538 332 488 q 218 545 254 573 q 157 410 174 511 q 158 202 142 319 q 173 199 161 201 q 186 196 184 196 q 198 194 189 195 q 211 192 207 192 q 222 192 215 192 q 235 193 229 192 q 249 196 241 194 z "},"c":{"ha":471,"x_min":18,"x_max":472,"o":"m 441 288 q 468 232 472 269 q 430 179 463 194 q 411 168 422 176 q 385 149 401 161 q 359 131 369 138 q 243 96 304 96 q 159 110 197 95 q 99 149 122 125 q 60 201 77 172 q 36 259 43 230 q 23 312 28 288 q 19 351 19 336 l 18 366 q 21 400 19 371 q 24 439 23 429 q 31 477 26 450 q 44 522 37 504 q 65 566 52 539 q 97 617 79 592 q 171 674 128 660 q 252 677 214 689 q 321 641 290 666 q 367 583 353 615 q 368 540 378 558 q 340 512 357 522 q 302 508 323 503 q 268 534 280 513 q 238 562 259 549 q 206 568 217 575 q 157 498 178 550 q 130 390 136 447 q 144 282 125 333 q 206 214 163 231 q 257 209 233 205 q 300 225 282 213 q 336 253 317 238 q 370 281 355 269 q 404 296 385 293 q 441 288 423 299 z "},"d":{"ha":464,"x_min":12,"x_max":436,"o":"m 428 130 q 409 72 436 93 q 349 62 381 51 q 314 112 317 73 q 313 137 313 122 q 311 162 312 151 q 309 181 311 172 q 287 175 307 180 q 258 168 268 169 q 69 224 139 147 q 12 380 14 286 q 69 545 12 477 q 275 624 142 633 q 311 620 292 623 q 313 702 315 637 q 311 872 313 772 q 311 1023 309 999 q 332 1062 313 1048 q 370 1074 350 1074 q 405 1057 389 1074 q 420 1014 420 1040 q 422 221 426 500 q 426 139 422 158 q 428 130 427 134 m 229 276 q 261 282 248 278 q 283 290 274 286 q 298 302 292 294 q 307 317 304 311 q 311 335 309 323 q 312 355 312 347 q 311 379 311 363 q 311 405 311 395 q 311 429 311 416 q 311 448 311 441 q 311 464 311 456 q 311 476 311 471 q 311 485 311 480 q 310 492 311 490 q 308 497 309 494 q 305 500 307 499 q 301 503 303 502 q 296 506 300 505 q 167 487 219 538 q 124 387 127 448 q 159 294 121 325 q 229 276 186 272 z "},"e":{"ha":419,"x_min":8,"x_max":416,"o":"m 332 228 q 391 215 366 237 q 412 161 416 193 q 374 118 409 130 q 331 113 359 113 q 267 118 304 113 q 192 139 231 123 q 118 179 153 155 q 57 244 83 203 q 21 338 31 286 q 25 481 8 411 q 80 599 42 551 q 165 675 119 647 q 261 696 212 703 q 348 646 311 690 q 367 594 366 625 q 363 541 368 568 q 341 484 357 513 q 298 433 324 455 q 229 396 273 411 q 130 382 185 382 q 149 304 127 340 q 208 252 171 269 q 274 231 236 240 q 332 228 312 222 m 235 524 q 251 579 267 566 q 208 570 237 591 q 149 494 172 545 q 235 524 217 500 z "},"f":{"ha":494,"x_min":-6,"x_max":539,"o":"m 184 636 q 315 926 208 836 q 454 979 382 983 q 528 943 508 977 q 536 904 539 925 q 509 863 533 876 q 459 861 485 849 q 440 870 450 865 q 373 826 403 859 q 328 753 344 793 q 303 677 311 713 q 295 614 295 641 q 433 616 304 614 q 490 587 475 616 q 490 530 506 558 q 439 504 474 502 q 361 505 428 506 q 285 496 294 503 q 290 283 283 450 q 307 96 296 117 q 306 48 316 77 q 279 9 295 18 q 225 5 252 -7 q 193 49 197 18 q 182 205 189 71 q 174 390 176 338 q 172 485 172 484 q 124 480 163 488 q 70 467 84 472 q 38 466 53 462 q 13 481 22 469 q -2 508 3 494 q 0 538 -6 522 q 20 566 5 554 q 59 581 33 574 q 178 602 85 587 q 184 636 180 610 z "},"g":{"ha":498,"x_min":-18,"x_max":480,"o":"m 468 338 q 458 129 480 231 q 387 -52 435 26 q 266 -177 339 -130 q 107 -226 192 -225 q 61 -217 85 -226 q 20 -194 38 -209 q -8 -163 3 -180 q -15 -128 -18 -146 q 7 -96 -12 -110 q 37 -82 23 -83 q 61 -88 52 -81 q 85 -102 71 -95 q 114 -113 99 -109 q 155 -108 130 -117 q 213 -77 181 -100 q 280 -10 251 -51 q 327 78 310 31 q 353 176 345 125 q 361 276 362 227 q 351 368 360 326 q 165 195 261 220 q 50 224 96 176 q 9 354 5 273 q 101 547 14 458 q 151 590 123 570 q 228 632 189 619 q 297 643 267 645 q 353 630 328 640 q 394 607 378 621 q 415 581 409 593 q 446 467 430 548 q 468 338 463 387 m 133 302 q 209 355 171 308 q 267 452 246 403 q 290 530 287 501 q 237 515 267 533 q 183 469 208 498 q 140 407 159 441 q 120 346 121 374 q 133 302 118 318 z "},"h":{"ha":446,"x_min":31,"x_max":418,"o":"m 406 503 q 414 380 411 464 q 418 231 417 296 l 418 165 q 386 115 416 130 q 331 119 356 100 q 305 190 304 140 q 291 495 311 390 q 230 541 271 595 l 229 540 q 172 429 191 489 q 152 317 153 368 q 153 218 152 267 q 156 136 155 169 q 143 83 157 102 q 97 65 130 63 q 64 79 78 66 q 46 111 50 92 q 37 235 42 136 q 34 404 31 335 q 42 659 37 503 q 58 968 50 910 q 94 1041 68 1030 q 123 1044 105 1046 q 157 1027 144 1042 q 172 989 171 1011 q 168 921 172 985 q 160 784 164 857 q 155 696 155 711 q 153 624 151 635 q 272 670 218 679 q 360 615 326 661 q 406 503 395 569 z "},"i":{"ha":190,"x_min":15,"x_max":173,"o":"m 165 123 q 149 71 173 92 q 94 60 125 50 q 69 77 78 66 q 51 120 60 87 q 37 219 41 153 q 33 393 33 285 q 31 437 32 408 q 35 578 26 543 q 99 619 49 629 q 132 598 119 615 q 142 562 144 582 q 143 360 138 518 q 165 123 148 201 m 74 677 q 33 694 49 678 q 16 734 16 711 q 31 773 15 757 q 71 789 47 789 q 112 772 95 789 q 130 733 130 756 q 114 693 131 710 q 74 677 97 677 z "},"j":{"ha":193,"x_min":-227,"x_max":161,"o":"m 132 584 q 161 290 153 541 q 161 250 161 277 q 140 -9 159 81 q -111 -252 88 -249 q -215 -210 -197 -254 q -205 -152 -227 -180 q -152 -127 -184 -123 q -135 -134 -143 -129 q -103 -141 -122 -140 q -59 -130 -84 -142 q -12 -92 -34 -118 q 26 -11 9 -66 q 46 122 43 45 q 48 331 52 248 q 40 462 45 414 q 30 536 34 510 q 29 576 26 563 q 48 602 33 589 q 94 613 68 618 q 132 584 120 607 m 61 681 q 26 701 40 684 q 14 739 13 717 q 18 762 14 749 q 43 791 25 781 q 81 797 61 801 q 114 776 102 793 q 125 740 127 760 q 123 723 124 728 q 100 690 117 701 q 61 681 82 678 z "},"k":{"ha":465,"x_min":24,"x_max":470,"o":"m 465 191 q 451 142 470 161 q 404 125 431 123 q 359 147 376 126 q 252 244 344 166 q 153 322 159 321 q 156 251 152 294 q 164 175 161 208 q 168 112 168 142 q 153 64 167 81 q 110 50 139 48 q 68 73 80 52 q 44 242 52 104 q 37 399 41 292 q 26 745 28 630 q 31 926 24 861 q 51 1003 39 991 q 91 1014 62 1015 q 123 1003 109 1013 q 142 975 137 992 q 144 886 144 949 q 143 722 143 823 q 146 576 144 621 q 169 597 151 574 q 208 651 186 619 q 237 690 230 682 q 265 709 249 705 q 296 709 281 714 q 321 694 310 705 q 336 668 333 684 q 332 635 338 652 q 290 573 326 621 q 221 484 254 525 l 189 442 q 350 309 299 351 q 429 239 401 266 q 460 208 457 213 q 465 191 463 202 z "},"l":{"ha":180,"x_min":24,"x_max":149,"o":"m 146 239 q 148 217 146 234 q 149 189 149 200 q 145 164 148 178 q 133 140 142 150 q 107 126 123 131 q 59 134 81 119 q 35 184 37 149 q 33 586 33 252 q 32 731 33 664 q 30 837 31 798 q 27 908 28 876 q 25 955 26 941 q 25 982 24 970 q 27 999 25 994 q 32 1010 28 1004 q 68 1039 44 1033 q 114 1027 93 1044 q 136 972 135 1010 q 143 735 143 774 q 146 239 144 695 z "},"m":{"ha":744,"x_min":22,"x_max":721,"o":"m 718 208 q 719 192 718 203 q 720 170 721 180 q 713 148 719 159 q 677 115 702 121 q 630 123 652 109 q 607 166 609 138 q 606 261 606 200 q 604 382 605 322 q 589 496 603 442 q 550 570 576 550 q 529 542 541 563 q 478 413 496 484 q 455 290 460 342 q 443 193 450 238 q 419 128 436 149 q 369 114 403 108 q 330 149 340 119 q 319 226 319 178 q 320 326 319 273 q 310 443 321 379 q 272 558 299 507 q 202 387 233 514 q 161 166 172 260 q 129 115 157 131 q 75 119 102 100 q 47 192 48 139 q 31 527 45 349 q 28 647 22 620 q 71 677 34 673 q 90 677 81 677 q 104 672 98 676 q 115 664 110 667 q 123 651 119 661 q 129 638 127 642 q 133 621 131 633 q 136 605 135 609 q 138 586 136 600 q 140 568 140 572 q 149 573 144 566 q 169 608 161 596 q 192 638 177 621 q 223 666 208 656 q 268 682 246 680 q 307 672 289 684 q 339 648 326 659 q 367 612 352 637 q 387 578 382 587 q 401 547 391 570 q 404 542 404 543 q 449 625 437 605 q 480 659 461 644 q 533 682 504 677 q 594 672 563 686 q 652 624 626 657 q 696 526 678 591 q 715 372 713 460 q 718 208 716 263 z "},"n":{"ha":515,"x_min":22,"x_max":499,"o":"m 496 152 q 477 94 499 113 q 427 82 454 75 q 389 118 399 90 q 381 190 385 130 q 372 312 376 250 q 350 433 367 374 q 307 509 334 492 q 283 485 296 503 q 232 389 254 445 q 197 288 210 334 q 172 201 185 242 q 140 141 159 161 q 93 129 121 122 q 71 138 77 133 q 57 159 64 142 q 47 204 50 175 q 40 289 44 234 q 32 424 37 344 q 24 572 27 515 q 32 610 22 594 q 57 630 42 626 q 89 633 73 635 q 118 619 105 631 q 133 587 130 606 q 141 469 135 574 q 163 498 146 468 q 203 562 180 529 q 265 614 225 595 q 357 609 305 633 q 404 575 383 597 q 437 520 424 553 q 459 456 450 488 q 475 379 469 425 q 484 302 481 334 q 490 223 487 271 q 496 152 494 174 z "},"o":{"ha":376,"x_min":14,"x_max":359,"o":"m 356 397 q 286 165 359 240 q 168 121 235 111 q 62 197 103 131 q 48 224 54 210 q 23 425 14 302 q 84 623 33 553 q 236 656 145 707 q 277 628 256 646 q 336 530 317 594 q 356 397 355 465 m 168 245 q 226 271 204 216 q 242 418 250 328 q 197 549 235 517 q 180 558 189 555 q 144 480 159 547 q 134 341 129 414 q 168 245 138 268 z "},"p":{"ha":415,"x_min":34,"x_max":420,"o":"m 155 619 q 306 600 234 656 q 392 462 367 551 q 380 273 420 359 q 185 142 328 165 q 149 137 168 138 q 152 15 146 116 q 164 -103 158 -86 q 156 -165 177 -138 q 102 -191 134 -193 q 56 -153 70 -189 q 40 39 47 -128 q 37 383 34 206 q 56 603 41 560 q 76 632 62 621 q 112 641 91 643 q 155 619 133 638 m 147 252 q 218 260 186 245 q 267 302 250 274 q 289 366 284 331 q 280 442 294 401 q 233 517 265 483 q 206 519 222 530 q 183 501 192 510 q 166 478 174 492 q 154 447 158 465 q 147 402 150 429 q 144 338 144 374 q 147 252 144 302 z "},"q":{"ha":430,"x_min":9,"x_max":408,"o":"m 399 459 q 390 391 395 433 q 383 334 385 349 q 378 283 381 319 q 374 211 375 248 q 371 114 373 174 q 368 -35 370 55 q 368 -63 367 -49 q 368 -92 368 -78 q 366 -120 367 -106 q 361 -144 365 -133 q 351 -162 357 -155 q 334 -175 345 -170 q 309 -178 323 -179 q 269 -160 282 -178 q 255 -104 256 -143 q 256 -23 253 -66 q 262 93 259 20 q 262 230 264 165 q 199 176 231 196 q 141 153 168 156 q 91 155 115 149 q 51 180 67 161 q 23 221 35 198 q 11 276 12 245 q 16 338 9 307 q 199 583 56 515 q 319 614 252 607 q 370 620 342 631 q 385 612 378 616 q 395 601 391 608 q 402 588 399 593 q 406 571 406 582 q 408 553 407 559 q 407 532 408 547 q 405 510 406 517 q 402 485 404 503 q 399 459 399 467 m 129 263 q 193 329 160 275 q 244 432 226 383 q 259 488 262 481 q 204 456 231 479 q 161 405 178 433 q 132 347 144 377 q 120 296 120 317 q 129 263 121 274 z "},"r":{"ha":429,"x_min":32,"x_max":435,"o":"m 432 660 q 433 634 435 645 q 419 612 430 623 q 401 596 408 601 q 376 581 395 592 q 297 509 332 553 q 243 417 263 465 q 207 318 223 370 q 180 224 191 267 q 155 148 168 181 q 123 101 142 115 q 77 97 104 87 q 62 104 68 100 q 51 116 56 108 q 43 134 45 124 q 38 163 40 144 q 34 205 35 182 q 33 263 33 228 q 32 339 32 298 q 32 437 32 380 q 32 498 32 462 q 32 567 32 535 q 43 607 32 591 q 71 627 55 623 q 104 627 87 631 q 132 606 121 623 q 143 565 143 589 q 143 525 143 546 q 142 475 142 504 q 144 474 143 475 q 146 473 146 473 q 312 673 227 612 q 413 694 379 720 q 432 660 427 683 z "},"s":{"ha":334,"x_min":-2,"x_max":329,"o":"m 165 816 q 224 799 195 817 q 263 757 254 781 q 258 709 273 733 q 232 690 245 693 q 209 693 219 688 q 186 706 199 699 q 165 713 174 713 q 143 691 149 713 q 144 650 138 669 q 164 600 147 629 q 202 540 181 570 q 248 473 223 509 q 290 399 272 436 q 318 322 307 361 q 322 241 329 282 q 292 162 315 201 q 217 83 269 123 q 87 8 165 43 q 19 20 44 -11 q 7 80 -2 46 q 63 128 18 119 q 75 130 68 129 q 105 139 85 130 q 149 165 124 148 q 190 210 174 183 q 210 274 206 237 q 192 357 214 311 q 151 428 176 393 q 105 487 125 463 q 66 544 85 510 q 37 615 46 578 q 59 757 16 701 q 165 816 102 814 z "},"t":{"ha":529,"x_min":-7,"x_max":532,"o":"m 482 338 q 519 309 507 332 q 522 258 532 286 q 446 119 488 175 q 361 41 403 64 q 276 23 319 19 q 200 55 234 26 q 142 139 166 84 q 111 267 118 194 q 106 363 106 313 q 108 465 106 413 q 111 536 111 517 q 77 536 94 538 q 50 535 61 534 q 26 543 39 536 q -2 580 3 556 q 7 625 -7 604 q 47 647 21 645 q 81 649 60 648 q 119 650 102 649 q 123 693 121 664 q 126 740 124 722 q 142 773 128 758 q 181 788 155 789 q 209 781 198 788 q 225 766 220 774 q 233 741 231 757 q 235 713 235 724 q 234 681 235 701 q 233 652 233 661 q 285 649 254 650 q 334 646 316 648 q 370 640 351 645 q 399 624 389 635 q 412 594 409 613 q 386 540 416 560 q 325 532 356 519 q 305 537 313 536 q 225 537 297 537 q 217 355 212 473 q 269 145 224 183 q 307 140 286 132 q 357 179 336 151 q 389 235 378 206 q 410 291 399 264 q 438 331 421 317 q 482 338 456 345 z "},"u":{"ha":446,"x_min":23,"x_max":433,"o":"m 427 165 q 430 132 433 149 q 415 105 427 116 q 389 90 404 95 q 358 89 375 84 q 330 109 342 94 q 315 140 321 121 q 293 245 310 160 q 261 199 275 217 q 228 161 248 181 q 190 134 208 142 q 150 129 172 127 q 104 147 127 131 q 62 195 79 165 q 37 253 45 224 q 26 325 29 282 q 24 397 23 368 q 27 473 24 426 q 29 542 29 521 q 68 630 31 613 q 121 620 96 642 q 142 567 143 600 q 139 494 141 536 q 137 430 138 452 q 136 378 136 408 q 136 332 135 349 q 140 298 138 316 q 148 269 142 280 q 160 250 153 258 q 196 303 178 268 q 228 380 214 339 q 250 456 241 420 q 266 521 260 492 q 273 551 273 550 q 304 586 281 576 q 350 586 327 596 q 380 551 372 576 q 386 464 382 543 q 398 296 389 386 q 427 165 408 207 z "},"v":{"ha":397,"x_min":20,"x_max":380,"o":"m 271 596 q 287 634 274 620 q 315 650 299 648 q 345 648 330 652 q 370 630 360 644 q 380 599 380 616 q 369 492 380 578 q 345 346 357 407 q 232 100 304 151 q 126 122 178 62 q 34 391 60 199 q 21 618 20 494 q 36 662 21 646 q 70 680 51 678 q 106 671 89 682 q 129 639 123 660 q 132 613 132 630 q 132 563 132 596 q 134 503 132 530 q 153 346 136 433 q 193 222 170 259 q 216 288 207 257 q 234 362 226 318 q 246 424 243 406 q 259 509 250 443 q 271 596 268 575 z "},"w":{"ha":673,"x_min":23,"x_max":661,"o":"m 610 651 q 655 600 650 646 q 645 467 661 553 q 639 418 641 435 q 603 269 629 333 q 544 174 578 205 q 473 140 510 144 q 397 170 435 136 q 330 270 359 204 q 326 263 328 267 q 322 256 323 258 q 273 169 302 203 q 214 123 244 135 q 154 120 184 111 q 99 155 123 128 q 56 231 74 182 q 34 342 39 279 q 27 430 30 393 q 24 499 25 466 q 24 555 23 533 q 27 597 24 577 q 34 627 29 616 q 46 646 39 638 q 62 657 53 654 q 83 660 71 660 q 123 643 108 660 q 138 592 138 627 q 138 566 138 588 q 138 526 138 545 q 138 479 138 508 q 140 426 138 450 q 143 373 141 401 q 148 322 144 344 q 156 280 151 300 q 168 248 161 260 q 182 233 174 236 q 197 251 191 237 q 244 375 227 309 q 267 485 261 440 q 279 569 272 530 q 301 625 286 607 q 346 640 317 642 q 389 612 376 637 q 402 545 401 587 q 404 457 404 504 q 419 355 405 411 q 464 256 433 299 q 475 263 475 262 q 517 367 503 307 q 534 475 531 427 q 542 567 537 524 q 562 633 546 610 q 610 651 577 655 z "},"x":{"ha":415,"x_min":7,"x_max":408,"o":"m 267 383 q 315 289 286 340 q 363 207 345 238 q 395 143 381 175 q 402 92 408 112 q 371 61 397 73 q 349 55 359 56 q 330 60 338 55 q 313 72 321 64 q 297 92 305 80 q 281 118 289 104 q 265 150 274 132 q 247 186 256 168 q 224 225 237 203 q 199 266 212 246 q 164 205 185 244 q 128 137 142 165 l 114 109 q 68 80 98 82 q 20 103 38 78 q 8 132 9 118 q 18 170 7 146 q 44 217 29 193 q 86 290 58 241 q 139 389 114 338 q 52 567 91 486 q 47 614 39 594 q 71 645 55 633 q 108 653 87 656 q 143 631 130 650 q 157 605 149 625 q 205 509 200 516 q 223 530 211 509 q 250 580 235 552 q 284 634 264 608 q 326 668 304 660 q 374 657 347 675 q 390 639 385 648 q 394 617 395 630 q 388 592 393 604 q 370 558 382 580 q 344 514 357 536 q 309 456 331 493 q 267 383 286 419 z "},"y":{"ha":475,"x_min":15,"x_max":442,"o":"m 431 587 q 434 502 431 554 q 439 413 437 450 q 441 325 441 376 q 440 235 442 273 q 432 150 438 197 q 414 65 425 102 q 385 -13 404 28 q 341 -89 366 -55 q 280 -155 316 -122 q 199 -215 244 -188 q 164 -224 184 -224 q 117 -199 132 -224 q 114 -143 102 -173 q 157 -105 125 -113 q 220 -57 180 -99 q 285 37 260 -14 q 318 135 306 81 q 330 227 330 189 q 326 292 330 264 q 301 267 317 285 q 272 233 286 248 q 233 203 258 218 q 178 181 208 187 q 100 194 134 172 q 49 259 66 216 q 23 357 31 301 q 16 468 15 412 q 26 572 18 523 q 64 641 36 625 q 117 642 92 658 q 144 599 142 627 q 140 570 142 588 q 134 504 138 552 q 130 418 130 456 q 137 342 130 379 q 160 292 144 304 q 317 591 250 313 q 318 595 318 593 q 319 598 319 596 q 320 602 319 601 q 338 634 325 621 q 366 648 351 646 q 396 646 381 650 q 420 626 410 642 q 431 587 430 610 z "},"z":{"ha":415,"x_min":7,"x_max":416,"o":"m 342 143 q 394 124 372 151 q 404 71 416 98 q 304 26 387 28 q 158 37 216 25 q 76 72 100 49 q 46 125 52 95 q 55 194 41 156 q 92 270 70 231 q 142 350 113 309 q 195 428 171 392 q 238 500 220 465 q 259 559 256 536 q 202 562 231 568 q 143 548 174 556 q 86 533 112 540 q 41 534 61 526 q 12 566 20 541 q 8 586 9 576 q 11 602 7 595 q 18 615 14 609 q 29 626 21 621 q 43 634 37 631 q 60 641 49 637 q 76 647 71 645 q 94 652 82 648 q 234 676 174 675 q 329 656 294 678 q 370 592 363 635 q 348 478 376 549 q 255 317 319 408 q 237 292 254 316 q 209 253 219 268 q 184 216 199 238 q 163 179 170 194 q 158 158 157 165 q 236 140 170 146 q 342 143 302 134 z "},"~":{"ha":669,"x_min":9,"x_max":659,"o":"m 614 627 q 649 596 640 620 q 644 550 659 572 q 523 440 587 469 q 395 431 458 412 q 263 511 331 450 q 217 531 244 528 q 160 516 189 533 q 113 465 132 499 q 64 436 97 433 q 22 464 34 438 q 29 524 9 490 q 111 608 60 578 q 180 632 141 627 q 260 627 219 637 q 330 591 300 617 q 403 539 370 555 q 457 525 435 523 q 496 539 479 528 q 526 568 513 551 q 552 601 540 585 q 580 624 564 616 q 614 627 596 633 z "},"":{"ha":276,"x_min":0,"x_max":0,"o":""},"":{"ha":0,"x_min":0,"x_max":0,"o":""},"":{"ha":426,"x_min":12,"x_max":410,"o":"m 376 788 q 401 765 393 781 q 408 730 410 749 q 395 701 405 711 q 369 686 385 690 q 338 681 353 682 q 303 680 323 680 q 271 677 283 680 q 276 607 273 638 q 280 564 279 575 q 282 542 282 552 q 277 520 281 531 q 255 493 271 503 q 221 484 239 482 q 189 494 201 485 q 172 524 177 504 q 166 563 168 543 q 163 614 165 582 q 159 668 162 646 q 102 659 132 669 q 54 656 73 649 q 21 686 31 664 q 22 731 12 707 q 62 766 33 754 q 152 783 83 773 q 152 809 153 793 q 151 839 151 826 q 153 865 151 851 q 164 889 155 879 q 189 903 173 899 q 235 897 214 911 q 260 859 256 884 q 266 793 264 837 q 327 793 282 791 q 376 788 371 794 m 245 435 q 266 435 248 435 q 293 435 285 435 q 317 432 301 435 q 340 423 333 429 q 354 405 348 417 q 360 376 361 393 q 348 342 359 354 q 314 326 336 330 q 268 322 292 322 q 207 321 243 322 q 141 314 170 319 q 99 323 118 310 q 76 361 80 337 q 77 391 73 378 q 94 412 81 404 q 119 425 107 420 q 156 431 132 429 q 195 433 180 433 q 237 433 209 433 q 245 433 243 433 l 245 435 z "},"":{"ha":394,"x_min":19,"x_max":376,"o":"m 362 450 q 372 408 376 431 q 351 371 369 385 q 318 358 334 359 q 289 367 303 357 q 264 389 275 377 q 237 418 253 401 q 210 443 222 434 q 192 413 203 431 q 175 383 182 395 q 158 357 168 372 q 140 336 149 343 q 121 323 132 329 q 99 320 111 318 q 75 330 87 322 q 49 363 53 344 q 56 405 45 383 q 79 448 66 427 q 107 490 93 468 q 125 524 121 511 q 85 568 115 536 q 37 621 56 600 q 22 646 26 632 q 22 672 19 660 q 33 694 25 684 q 53 710 41 705 q 78 716 64 716 q 104 707 92 715 q 121 694 113 702 q 149 664 130 686 q 189 620 169 641 q 203 643 192 625 q 221 668 215 660 q 238 690 227 676 q 258 710 250 705 q 279 720 267 715 q 302 720 290 724 q 326 705 314 716 q 344 678 340 692 q 340 647 347 663 q 322 616 332 631 q 297 579 313 602 q 272 541 281 557 q 362 450 356 458 z "},"":{"ha":316,"x_min":12,"x_max":300,"o":"m 184 618 q 202 618 188 618 q 224 618 216 618 q 245 617 232 618 q 267 612 259 616 q 284 602 275 608 q 296 584 292 595 q 299 559 300 573 q 287 524 298 536 q 253 508 275 512 q 207 505 231 505 q 146 503 182 505 q 80 496 109 502 q 38 506 57 492 q 15 543 19 519 q 16 574 12 561 q 33 594 20 587 q 58 607 46 602 q 95 613 71 612 q 134 615 119 615 q 176 616 148 616 q 184 616 182 616 l 184 618 m 217 388 q 201 347 217 363 q 161 330 184 330 q 121 347 138 330 q 105 387 105 363 q 122 429 105 412 q 162 445 138 446 q 201 428 186 444 q 217 388 217 412 m 179 729 q 140 745 157 729 q 123 783 123 761 q 140 825 122 807 q 182 842 158 842 q 221 826 205 842 q 237 787 237 809 q 219 746 237 764 q 179 729 202 729 z "},"":{"ha":446,"x_min":20,"x_max":433,"o":"m 326 1019 q 369 1045 342 1044 q 414 1027 395 1046 q 427 979 433 1007 q 355 768 425 963 q 386 732 380 758 q 378 683 393 706 q 334 659 363 661 l 316 659 q 262 497 288 577 q 303 499 279 498 q 334 500 328 500 q 383 474 365 501 q 386 418 401 448 q 355 391 375 396 q 267 383 336 386 q 224 382 240 382 q 148 126 185 256 q 127 74 136 86 q 111 60 120 65 q 50 64 80 41 q 31 125 20 87 q 105 374 72 269 q 83 374 94 373 q 40 400 54 376 q 36 449 26 424 q 74 482 45 475 q 143 491 94 488 q 168 567 150 512 q 195 650 186 622 q 68 657 101 644 q 35 697 39 669 q 49 747 30 726 q 99 764 68 769 q 235 767 136 758 q 326 1019 316 1004 z "},"":{"ha":882,"x_min":-8,"x_max":857,"o":"m 444 536 q 439 454 445 532 q 437 286 433 376 q 463 138 440 195 q 444 56 485 81 q 414 46 428 47 q 390 54 401 45 q 371 72 380 62 q 356 102 363 83 q 345 137 350 121 q 336 177 340 153 q 330 216 332 201 q 325 253 328 231 q 313 235 323 251 q 298 214 302 219 q 284 196 294 210 q 266 175 273 182 q 247 158 258 168 q 223 141 235 149 q 125 133 173 114 q 47 201 77 151 q 28 418 -8 295 q 132 590 58 520 q 288 656 210 663 q 388 602 345 650 q 411 585 396 593 q 434 566 425 576 q 444 536 442 556 m 166 238 q 198 270 183 253 q 226 311 212 286 q 248 351 239 335 q 269 404 256 368 q 289 456 283 439 q 311 519 294 472 q 213 515 267 566 q 143 392 168 472 q 141 262 117 306 q 166 238 150 245 m 849 502 q 842 304 842 378 q 845 213 842 231 q 851 179 848 195 q 856 146 855 163 q 845 112 857 127 q 814 93 833 98 q 778 94 793 87 q 754 117 762 100 q 743 150 747 133 q 735 186 739 166 q 728 215 731 207 q 697 189 710 198 q 666 171 685 180 q 627 163 648 162 q 585 176 607 165 q 524 236 545 196 q 501 321 503 275 q 514 417 499 368 q 557 507 529 467 q 628 575 585 547 q 721 606 671 602 q 754 603 730 606 q 791 602 778 600 q 810 601 802 603 q 824 597 818 600 q 834 588 830 594 q 842 578 839 583 q 847 565 845 573 q 849 551 848 556 q 850 536 850 546 q 850 524 850 527 q 850 511 850 520 q 849 502 849 503 m 631 280 q 683 371 655 299 q 711 490 711 444 q 666 460 689 486 q 629 401 642 434 q 613 334 615 368 q 631 280 611 300 z "},"":{"ha":827,"x_min":8,"x_max":829,"o":"m 781 240 q 819 201 811 229 q 794 143 829 166 q 637 125 745 112 q 453 251 508 142 q 429 460 407 342 q 515 635 449 569 q 699 684 595 713 q 772 615 758 667 q 776 570 780 594 q 763 521 772 545 q 733 473 753 497 q 685 429 712 449 q 618 393 658 409 q 532 368 578 377 q 564 293 543 323 q 610 252 585 263 q 663 236 635 240 q 715 234 692 231 q 757 239 738 237 q 781 240 777 241 m 659 575 q 604 559 634 581 q 555 490 574 538 q 625 524 591 499 q 659 575 659 549 m 358 458 q 308 384 338 412 q 248 346 277 355 q 192 334 218 336 q 147 334 166 332 q 126 335 128 336 q 141 288 130 308 q 163 260 150 272 q 191 241 176 248 q 219 229 205 234 q 249 223 234 224 q 274 221 264 222 q 294 221 283 220 q 304 221 304 221 q 345 203 330 220 q 359 166 359 186 q 346 129 359 146 q 309 109 332 111 q 170 123 231 102 q 76 184 109 144 q 26 275 43 224 q 15 379 8 326 q 40 480 21 433 q 99 563 60 528 q 189 608 138 597 q 270 608 231 618 q 332 575 309 598 q 364 522 355 552 q 358 458 374 491 m 248 494 q 194 492 222 506 q 157 450 166 479 q 212 454 188 442 q 248 494 237 467 z "},"":{"ha":376,"x_min":28,"x_max":351,"o":"m 330 389 q 349 121 339 206 q 349 96 351 104 q 347 92 348 94 q 326 63 340 74 q 295 53 311 53 q 264 62 279 53 q 242 90 249 72 q 220 339 230 123 q 220 587 211 555 q 253 625 227 616 q 302 621 279 635 q 329 577 326 607 l 329 389 l 330 389 m 142 407 l 143 407 q 145 286 143 338 q 149 207 146 233 q 153 163 151 181 q 156 140 155 146 q 157 128 157 134 q 153 113 156 122 q 128 82 145 92 q 94 74 111 72 q 62 87 77 75 q 44 120 47 100 q 31 339 33 186 q 35 556 28 491 q 66 607 38 592 q 122 602 95 621 q 146 536 149 583 q 144 472 146 515 q 142 407 142 429 m 270 673 q 218 702 235 673 q 215 760 201 730 q 265 789 228 789 q 300 778 286 789 q 320 750 315 766 q 323 716 325 733 q 307 686 321 699 q 270 673 292 674 m 155 699 q 137 676 155 688 q 99 660 120 665 q 61 664 79 654 q 43 698 44 673 q 54 733 43 719 q 82 751 66 748 q 115 752 98 755 q 143 734 132 749 q 155 699 155 720 z "},"":{"ha":369,"x_min":23,"x_max":334,"o":"m 311 888 q 329 553 323 744 q 334 238 334 363 q 330 100 333 113 q 292 60 322 68 q 235 74 259 50 q 218 149 210 100 q 221 405 227 231 q 206 755 216 578 l 195 931 q 211 970 196 954 q 249 988 227 987 q 272 986 262 989 q 288 975 281 983 q 298 961 294 966 q 305 941 302 955 q 309 923 308 928 q 311 903 309 918 l 311 888 m 156 344 l 157 344 q 159 272 158 304 q 161 225 161 239 q 162 200 162 211 q 162 184 163 189 q 161 174 162 179 q 144 144 157 155 q 117 131 132 133 q 87 134 102 130 q 62 152 73 138 q 51 183 52 165 q 24 745 23 654 q 43 863 24 844 q 82 872 54 873 q 131 831 122 871 q 146 608 140 791 q 156 359 151 461 l 156 344 z "},"":{"ha":962,"x_min":28,"x_max":946,"o":"m 937 235 q 945 131 946 151 q 899 70 941 75 q 888 69 894 69 q 855 81 869 70 q 836 110 840 92 q 829 176 834 115 q 816 302 823 237 q 792 426 809 366 q 751 496 774 485 q 687 426 717 484 q 641 307 656 368 q 611 189 625 246 q 597 127 598 131 q 556 95 584 100 q 506 111 528 90 q 484 172 484 133 q 484 300 486 237 q 478 404 481 362 q 471 483 474 445 q 466 544 467 521 q 466 586 464 567 q 476 616 469 606 q 498 633 484 627 q 545 630 522 642 q 574 593 568 618 q 579 559 576 587 q 582 525 580 550 q 585 483 584 499 q 648 557 616 527 q 710 601 679 587 q 770 611 741 614 q 825 583 799 608 q 873 514 852 558 q 912 399 895 470 q 937 235 928 328 m 216 626 q 252 639 233 635 q 293 639 271 643 q 335 622 315 635 q 371 581 354 608 q 396 515 387 553 q 414 304 410 453 q 411 149 417 155 q 389 119 405 130 q 356 110 373 109 q 322 121 338 110 q 301 153 307 132 q 302 233 300 155 q 298 399 304 310 q 273 526 292 488 q 229 466 250 511 q 194 367 208 421 q 170 261 180 312 q 153 172 159 210 l 148 135 q 111 102 136 108 q 62 114 85 96 q 37 168 39 132 q 38 591 28 296 q 57 637 39 621 q 101 652 75 654 q 125 644 115 650 q 140 630 135 637 q 147 609 144 623 q 150 589 149 596 q 150 570 150 583 q 150 565 150 566 q 153 564 152 565 q 162 575 156 568 q 170 585 168 582 q 177 594 172 589 q 186 604 182 600 q 194 611 189 607 q 204 619 199 615 q 216 626 210 623 z "},"":{"ha":776,"x_min":5,"x_max":772,"o":"m 311 623 q 358 554 339 596 q 380 481 373 520 q 388 404 388 442 q 381 327 387 366 q 362 254 375 288 q 333 191 350 220 q 295 140 317 161 q 248 107 273 119 q 195 97 224 96 q 138 112 167 98 q 27 279 51 155 q 41 506 5 389 q 138 656 75 614 q 307 627 218 710 q 311 623 309 625 m 183 216 q 227 232 200 200 q 273 354 263 275 q 273 444 279 399 q 216 555 256 554 q 161 504 188 557 q 130 353 127 435 q 183 216 133 264 m 506 566 q 631 591 563 630 q 727 472 689 558 q 757 273 772 370 q 670 128 742 178 q 524 127 592 75 q 444 268 467 172 q 455 480 416 380 q 506 566 473 529 m 631 253 q 643 354 648 304 q 621 441 638 404 q 585 482 603 479 q 548 328 541 423 q 579 230 553 260 q 623 237 602 201 q 631 253 627 243 z "},"":{"ha":883,"x_min":26,"x_max":890,"o":"m 884 659 q 886 624 890 642 q 866 594 881 606 q 835 575 855 586 q 798 552 814 565 q 759 513 782 540 q 706 433 735 487 q 642 300 676 380 q 616 223 627 264 q 600 155 605 181 q 586 105 594 129 q 562 73 577 82 q 522 67 547 64 q 473 134 478 73 q 463 422 463 281 q 473 598 463 563 q 496 630 479 619 q 536 638 514 642 q 558 632 549 636 q 571 620 566 629 q 578 602 576 610 q 581 575 581 593 q 580 542 581 556 q 577 497 579 527 q 575 446 576 468 q 575 444 575 445 q 576 440 576 442 q 578 434 577 437 q 612 498 601 478 q 645 551 623 517 q 687 603 667 584 q 736 646 706 623 q 802 688 766 669 q 850 691 826 700 q 884 659 874 682 m 149 401 q 350 577 270 573 q 402 545 387 578 q 408 524 407 534 q 400 492 408 505 q 382 472 391 478 q 358 460 372 467 q 341 452 345 454 q 259 362 296 422 q 204 254 222 303 q 171 151 186 205 q 155 96 156 98 q 130 68 148 78 q 94 60 112 58 q 61 81 75 62 q 45 134 46 100 q 35 379 41 236 q 32 573 26 534 q 79 614 39 612 q 118 604 103 616 q 138 566 133 591 q 144 516 142 541 q 146 456 145 491 q 149 401 146 422 z "},"":{"ha":621,"x_min":-10,"x_max":613,"o":"m 441 633 q 467 578 445 609 q 514 513 488 547 q 565 439 541 479 q 601 342 589 399 q 603 224 613 286 q 499 64 587 123 q 361 -12 404 -1 q 306 5 328 -21 q 297 64 283 31 q 311 86 304 79 q 329 97 319 93 q 368 115 338 100 q 433 154 397 130 q 493 240 483 186 q 481 348 503 294 q 418 454 460 402 q 367 528 387 492 q 339 594 347 564 q 331 651 331 625 q 340 699 331 678 q 362 736 349 720 q 395 764 376 753 q 435 779 414 774 q 478 784 456 785 q 522 776 500 783 q 551 755 541 770 q 561 723 561 740 q 552 692 562 707 q 524 671 542 677 q 498 669 513 669 q 469 669 483 669 q 447 661 456 669 q 441 633 439 652 m 237 399 q 310 262 296 334 q 296 134 323 189 q 212 51 269 78 q 52 33 107 1 q 22 86 20 52 q 52 132 23 117 q 96 136 71 140 q 191 179 164 136 q 188 276 217 222 q 170 305 180 292 q 131 348 159 317 q 77 408 103 378 q 26 604 -10 510 q 113 696 50 663 q 222 713 174 728 q 243 703 234 710 q 266 672 260 691 q 264 634 272 652 q 242 608 256 615 q 217 602 229 601 q 187 602 204 604 q 157 591 170 600 q 129 559 135 576 q 136 518 122 543 q 163 478 151 494 q 210 428 176 463 q 219 418 216 421 q 227 409 222 414 q 237 399 233 404 z "},"":{"ha":823,"x_min":34,"x_max":828,"o":"m 155 619 q 306 600 234 656 q 392 462 367 551 q 380 273 420 359 q 185 142 328 165 q 149 137 168 138 q 152 15 146 116 q 164 -103 158 -86 q 156 -165 177 -138 q 102 -191 134 -193 q 56 -153 70 -189 q 40 39 47 -128 q 37 383 34 206 q 56 603 41 560 q 76 632 62 621 q 112 641 91 643 q 155 619 133 638 m 147 252 q 218 260 186 245 q 267 302 250 274 q 289 366 284 331 q 280 442 294 401 q 233 517 265 483 q 206 519 222 530 q 183 501 192 510 q 166 478 174 492 q 154 447 158 465 q 147 402 150 429 q 144 338 144 374 q 147 252 144 302 m 562 589 q 713 570 641 626 q 799 431 774 521 q 787 243 828 328 q 593 111 736 135 l 557 106 q 559 -16 553 85 q 571 -134 565 -117 q 563 -197 584 -170 q 509 -222 541 -224 q 463 -184 477 -220 q 448 19 454 -159 q 447 387 442 198 q 466 618 451 575 q 496 646 472 636 q 542 641 520 655 q 562 589 563 627 m 554 221 q 625 229 593 215 q 674 272 656 243 q 696 336 691 300 q 687 412 701 371 q 640 487 672 452 q 613 488 629 498 q 590 470 599 479 q 573 448 581 462 q 561 416 565 434 q 554 371 557 399 q 551 308 551 344 q 554 221 551 271 z "}}}
